<?xml version="1.0" standalone="no"?>
<!DOCTYPE svg PUBLIC "-//W3C//DTD SVG 20010904//EN"
 "http://www.w3.org/TR/2001/REC-SVG-20010904/DTD/svg10.dtd">
<svg version="1.0" xmlns="http://www.w3.org/2000/svg"
 width="981.000000pt" height="370.000000pt" viewBox="0 0 981.000000 370.000000"
 preserveAspectRatio="xMidYMid meet">

<g transform="translate(0.000000,370.000000) scale(0.100000,-0.100000)"
fill="#000000" stroke="none">
<path d="M4241 3091 c-14 -4 -26 -12 -29 -19 -6 -19 23 -14 43 8 10 11 16 20
14 19 -2 -1 -15 -4 -28 -8z"/>
<path d="M4286 3072 c-24 -26 -25 -30 -10 -36 10 -4 25 1 38 12 12 11 30 24
41 30 16 9 17 11 3 12 -9 0 -23 2 -30 5 -8 3 -26 -8 -42 -23z"/>
<path d="M4376 3060 c-42 -13 -69 -40 -55 -56 9 -11 16 -10 36 6 14 11 41 20
59 20 36 0 42 8 22 28 -14 14 -21 14 -62 2z"/>
<path d="M725 3041 c-67 -17 -155 -78 -155 -108 0 -21 20 -15 58 18 48 42 91
59 152 59 61 0 104 -17 152 -59 54 -47 78 -39 37 13 -45 57 -170 96 -244 77z"/>
<path d="M913 3039 c14 -8 22 -8 30 0 8 8 3 11 -18 11 -26 -1 -28 -2 -12 -11z"/>
<path d="M972 3034 c-18 -12 -20 -19 -11 -30 9 -12 15 -11 36 6 15 12 41 20
63 20 22 0 48 -8 63 -20 21 -17 27 -18 36 -6 21 25 -25 46 -99 46 -44 0 -73
-5 -88 -16z"/>
<path d="M1180 3040 c0 -13 11 -13 30 0 12 8 11 10 -7 10 -13 0 -23 -4 -23
-10z"/>
<path d="M1285 3041 c-67 -17 -155 -78 -155 -108 0 -21 20 -15 58 18 48 42 91
59 152 59 61 0 104 -17 152 -59 54 -47 78 -39 37 13 -45 57 -170 96 -244 77z"/>
<path d="M1470 3040 c19 -13 30 -13 30 0 0 6 -10 10 -22 10 -19 0 -20 -2 -8
-10z"/>
<path d="M4146 3043 c-15 -15 -4 -33 19 -33 37 0 86 -23 127 -59 54 -47 78
-39 37 13 -33 43 -163 99 -183 79z"/>
<path d="M1521 3026 c-8 -10 -8 -16 1 -24 10 -7 21 -4 43 14 l30 24 -31 0
c-17 0 -37 -6 -43 -14z"/>
<path d="M589 3003 c-13 -16 -12 -17 4 -4 9 7 17 15 17 17 0 8 -8 3 -21 -13z"/>
<path d="M1019 2991 c-18 -15 -21 -22 -13 -31 9 -9 17 -8 33 2 17 11 25 11 42
0 16 -10 24 -11 33 -2 13 14 -26 50 -54 50 -10 0 -28 -9 -41 -19z"/>
<path d="M1579 2991 c-18 -15 -21 -22 -13 -31 9 -9 17 -8 33 2 17 11 25 11 42
0 16 -10 24 -11 33 -2 13 14 -26 50 -54 50 -10 0 -28 -9 -41 -19z"/>
<path d="M4379 2991 c-18 -15 -21 -22 -13 -31 9 -9 17 -8 33 2 17 10 25 10 41
0 25 -15 30 -15 30 2 0 20 -28 46 -50 46 -10 0 -28 -9 -41 -19z"/>
<path d="M716 2975 c-21 -7 -51 -26 -67 -41 -25 -24 -27 -29 -13 -37 11 -6 22
-3 37 11 35 31 63 42 107 42 44 0 72 -11 107 -42 15 -14 26 -17 38 -11 36 21
-83 94 -150 93 -11 -1 -37 -7 -59 -15z"/>
<path d="M1276 2975 c-21 -7 -51 -26 -67 -41 -25 -24 -27 -29 -13 -37 11 -6
22 -3 37 11 35 31 63 42 107 42 44 0 72 -11 107 -42 15 -14 26 -17 38 -11 36
21 -83 94 -150 93 -11 -1 -37 -7 -59 -15z"/>
<path d="M4130 2970 c0 -15 7 -20 26 -20 29 0 60 -14 91 -42 15 -14 26 -17 38
-11 33 19 -80 93 -142 93 -7 0 -13 -9 -13 -20z"/>
<path d="M1707 2962 c-38 -41 -6 -59 32 -18 19 21 20 24 6 30 -22 8 -20 9 -38
-12z"/>
<path d="M1045 2940 c-3 -5 3 -10 15 -10 12 0 18 5 15 10 -3 6 -10 10 -15 10
-5 0 -12 -4 -15 -10z"/>
<path d="M1605 2940 c-3 -5 3 -10 15 -10 12 0 18 5 15 10 -3 6 -10 10 -15 10
-5 0 -12 -4 -15 -10z"/>
<path d="M4405 2940 c-3 -5 3 -10 15 -10 12 0 18 5 15 10 -3 6 -10 10 -15 10
-5 0 -12 -4 -15 -10z"/>
<path d="M1756 2921 c-16 -17 -16 -19 0 -25 19 -7 57 21 48 35 -9 15 -30 10
-48 -10z"/>
<path d="M736 2920 c-42 -13 -69 -40 -55 -56 9 -11 16 -10 36 6 15 12 41 20
63 20 22 0 48 -8 63 -20 21 -17 27 -18 36 -6 27 32 -82 75 -143 56z"/>
<path d="M1296 2920 c-42 -13 -69 -40 -55 -56 9 -11 16 -10 36 6 15 12 41 20
63 20 22 0 48 -8 63 -20 21 -17 27 -18 36 -6 27 32 -82 75 -143 56z"/>
<path d="M4130 2911 c0 -15 6 -21 24 -21 13 0 35 -9 49 -20 21 -17 27 -18 36
-6 9 11 6 18 -16 34 -15 11 -43 23 -60 27 -29 6 -33 4 -33 -14z"/>
<path d="M1005 2901 c-49 -13 -112 -49 -134 -77 -41 -52 -17 -60 37 -13 48 42
91 59 152 59 61 0 104 -17 152 -59 54 -47 78 -39 37 13 -45 57 -170 96 -244
77z"/>
<path d="M1565 2901 c-49 -13 -112 -49 -134 -77 -41 -52 -17 -60 37 -13 48 42
91 59 152 59 61 0 104 -17 152 -59 54 -47 78 -39 37 13 -45 57 -170 96 -244
77z"/>
<path d="M1806 2891 c-13 -14 -14 -20 -4 -29 18 -15 62 20 45 37 -15 15 -21
14 -41 -8z"/>
<path d="M4365 2901 c-78 -20 -173 -94 -143 -112 7 -5 26 5 47 23 46 40 90 58
146 58 39 0 46 3 43 18 -4 19 -44 25 -93 13z"/>
<path d="M540 2886 c0 -8 15 -19 34 -26 18 -6 51 -26 74 -45 59 -51 84 -45 41
9 -22 28 -107 76 -134 76 -8 0 -15 -6 -15 -14z"/>
<path d="M739 2851 c-18 -15 -21 -22 -13 -31 9 -9 17 -8 33 2 17 11 25 11 42
0 16 -10 24 -11 33 -2 13 14 -26 50 -54 50 -10 0 -28 -9 -41 -19z"/>
<path d="M1299 2851 c-18 -15 -21 -22 -13 -31 9 -9 17 -8 33 2 17 11 25 11 42
0 16 -10 24 -11 33 -2 13 14 -26 50 -54 50 -10 0 -28 -9 -41 -19z"/>
<path d="M4140 2852 c0 -24 39 -47 54 -32 8 9 5 16 -13 31 -29 24 -41 24 -41
1z"/>
<path d="M1850 2845 c-19 -23 1 -40 28 -24 16 10 18 16 10 26 -14 17 -23 16
-38 -2z"/>
<path d="M996 2835 c-21 -7 -51 -26 -67 -41 -25 -24 -27 -29 -13 -37 11 -6 22
-3 37 11 35 31 63 42 107 42 44 0 72 -11 107 -42 15 -14 26 -17 38 -11 36 21
-83 94 -150 93 -11 -1 -37 -7 -59 -15z"/>
<path d="M1556 2835 c-21 -7 -51 -26 -67 -41 -25 -24 -27 -29 -13 -37 11 -6
22 -3 37 11 35 31 63 42 107 42 44 0 72 -11 107 -42 15 -14 26 -17 38 -11 36
21 -83 94 -150 93 -11 -1 -37 -7 -59 -15z"/>
<path d="M4356 2835 c-22 -7 -48 -23 -60 -34 l-20 -21 24 0 c14 1 36 7 50 15
14 8 36 14 51 15 24 0 49 16 49 32 0 12 -51 9 -94 -7z"/>
<path d="M540 2825 c0 -8 10 -20 23 -26 12 -6 31 -20 43 -31 13 -11 28 -16 38
-12 15 6 15 9 -6 31 -24 26 -69 53 -88 53 -5 0 -10 -7 -10 -15z"/>
<path d="M765 2800 c-3 -5 3 -10 15 -10 12 0 18 5 15 10 -3 6 -10 10 -15 10
-5 0 -12 -4 -15 -10z"/>
<path d="M1325 2800 c-3 -5 3 -10 15 -10 12 0 18 5 15 10 -3 6 -10 10 -15 10
-5 0 -12 -4 -15 -10z"/>
<path d="M1885 2800 c-3 -5 3 -10 15 -10 12 0 18 5 15 10 -3 6 -10 10 -15 10
-5 0 -12 -4 -15 -10z"/>
<path d="M1014 2779 c-17 -5 -36 -15 -42 -22 -9 -11 7 -13 88 -13 55 0 100 1
100 2 0 1 -11 9 -24 17 -31 21 -84 28 -122 16z"/>
<path d="M1576 2780 c-15 -5 -37 -17 -47 -26 -17 -16 -18 -19 -4 -26 10 -6 23
-4 37 6 31 22 90 20 121 -4 21 -17 27 -18 36 -6 27 32 -82 75 -143 56z"/>
<path d="M540 2763 c0 -10 11 -26 24 -35 20 -15 26 -15 35 -4 9 11 6 19 -18
35 -35 26 -41 26 -41 4z"/>
<path d="M725 2761 c-67 -17 -155 -78 -155 -108 0 -21 20 -15 58 18 54 48 96
61 176 57 45 -2 71 1 73 8 2 6 -3 14 -11 17 -29 11 -111 16 -141 8z"/>
<path d="M1282 2761 c-61 -16 -46 -21 59 -21 67 1 99 4 88 10 -23 14 -110 20
-147 11z"/>
<path d="M1845 2761 c-66 -16 -155 -78 -155 -108 0 -22 20 -15 63 22 50 43 97
58 164 54 45 -4 50 -2 42 12 -15 29 -51 35 -114 20z"/>
<path d="M1585 2717 c-24 -18 -11 -39 21 -31 14 4 31 1 40 -6 12 -10 17 -11
27 -1 9 10 7 17 -12 32 -27 22 -50 24 -76 6z"/>
<path d="M540 2690 c0 -19 3 -21 12 -12 9 9 9 15 0 24 -9 9 -12 7 -12 -12z"/>
<path d="M716 2695 c-21 -7 -51 -26 -67 -41 -25 -24 -27 -29 -14 -37 11 -6 25
-1 46 17 17 14 41 29 55 32 27 7 90 1 117 -10 13 -6 17 -3 17 12 0 16 -10 24
-37 31 -49 14 -69 13 -117 -4z"/>
<path d="M1836 2696 c-21 -8 -51 -27 -67 -42 -25 -24 -27 -29 -13 -37 11 -6
22 -3 37 11 50 45 121 56 176 27 27 -14 29 -13 24 5 -3 11 -11 24 -18 30 -21
18 -98 21 -139 6z"/>
<path d="M1610 2660 c0 -5 7 -10 16 -10 8 0 12 5 9 10 -3 6 -10 10 -16 10 -5
0 -9 -4 -9 -10z"/>
<path d="M736 2640 c-42 -13 -69 -40 -55 -56 9 -11 16 -10 36 6 34 26 93 26
127 -1 l26 -20 0 23 c0 40 -74 67 -134 48z"/>
<path d="M1856 2640 c-42 -13 -69 -40 -55 -56 9 -11 16 -10 36 6 15 12 41 20
63 20 22 0 48 -8 63 -20 21 -17 27 -18 36 -6 27 32 -82 75 -143 56z"/>
<path d="M1639 2612 c5 -10 27 -24 48 -30 22 -6 57 -27 80 -47 60 -51 85 -46
42 9 -24 30 -97 70 -147 79 -29 6 -31 5 -23 -11z"/>
<path d="M540 2606 c0 -8 15 -19 34 -26 18 -6 51 -26 74 -45 59 -51 84 -45 41
9 -22 28 -107 76 -134 76 -8 0 -15 -6 -15 -14z"/>
<path d="M2922 2608 c-8 -8 -9 -15 -1 -25 9 -10 16 -9 36 7 15 12 41 20 63 20
22 0 48 -8 63 -20 22 -17 26 -18 37 -5 10 12 7 16 -15 25 -37 14 -168 13 -183
-2z"/>
<path d="M3505 2608 c-28 -15 -28 -15 -20 -28 4 -7 15 -4 32 10 15 12 41 20
63 20 22 0 48 -8 63 -20 15 -12 28 -16 32 -11 18 30 -125 55 -170 29z"/>
<path d="M5418 2595 c-60 -32 -111 -95 -77 -95 6 0 27 14 47 31 48 42 91 59
152 59 61 0 104 -17 152 -59 61 -53 82 -33 25 24 -39 39 -87 55 -182 61 -60 4
-76 1 -117 -21z"/>
<path d="M6995 2596 c22 -18 33 -21 43 -14 19 16 -5 38 -42 38 l-31 0 30 -24z"/>
<path d="M7098 2595 c-60 -32 -111 -95 -77 -95 6 0 27 14 47 31 48 42 91 59
154 60 l53 1 -50 14 c-65 18 -72 17 -127 -11z"/>
<path d="M2810 2600 c-25 -7 -24 -7 11 -22 19 -9 51 -30 71 -47 54 -47 78 -39
37 13 -29 37 -88 64 -119 56z"/>
<path d="M5320 2601 c0 -5 6 -14 14 -20 10 -8 16 -8 25 2 6 8 8 17 4 20 -9 10
-43 8 -43 -2z"/>
<path d="M4274 2581 c-30 -19 -64 -57 -64 -73 0 -16 24 -7 58 23 19 17 49 37
66 45 17 7 23 13 14 14 -9 0 -22 2 -30 5 -7 3 -27 -4 -44 -14z"/>
<path d="M8120 2595 c0 -10 29 -24 34 -17 3 6 -3 12 -14 15 -11 3 -20 4 -20 2z"/>
<path d="M739 2571 c-18 -15 -21 -22 -13 -31 9 -9 17 -8 33 2 17 11 25 11 42
0 16 -10 24 -11 33 -2 13 14 -26 50 -54 50 -10 0 -28 -9 -41 -19z"/>
<path d="M1859 2571 c-18 -15 -21 -22 -13 -31 9 -9 17 -8 33 2 17 11 25 11 42
0 16 -10 24 -11 33 -2 13 14 -26 50 -54 50 -10 0 -28 -9 -41 -19z"/>
<path d="M2979 2571 c-18 -15 -21 -22 -13 -31 9 -9 17 -8 33 2 17 11 25 11 42
0 16 -10 24 -11 33 -2 13 14 -26 50 -54 50 -10 0 -28 -9 -41 -19z"/>
<path d="M3124 2556 c-61 -61 -38 -78 29 -21 22 19 45 35 49 35 5 0 6 5 3 10
-12 20 -48 9 -81 -24z"/>
<path d="M3539 2571 c-18 -15 -21 -22 -13 -31 9 -9 17 -8 33 2 17 11 25 11 42
0 16 -10 24 -11 33 -2 13 14 -26 50 -54 50 -10 0 -28 -9 -41 -19z"/>
<path d="M5228 2574 c-16 -8 -28 -19 -28 -24 0 -17 19 -21 40 -8 16 10 24 10
41 0 16 -10 24 -11 33 -2 8 9 5 16 -13 31 -28 23 -37 23 -73 3z"/>
<path d="M6899 2571 c-18 -15 -21 -22 -13 -31 9 -9 17 -8 33 2 17 11 25 11 42
0 16 -10 24 -11 33 -2 13 14 -26 50 -54 50 -10 0 -28 -9 -41 -19z"/>
<path d="M8034 2580 c-28 -11 -39 -29 -26 -42 6 -6 17 -5 31 4 17 11 25 11 42
0 16 -10 24 -11 33 -2 8 9 5 16 -13 31 -25 21 -35 22 -67 9z"/>
<path d="M9139 2571 c-18 -15 -21 -22 -13 -31 9 -9 17 -8 33 2 17 11 25 11 42
0 16 -10 24 -11 33 -2 13 14 -26 50 -54 50 -10 0 -28 -9 -41 -19z"/>
<path d="M8156 2549 c-46 -55 -26 -68 30 -19 32 27 33 30 15 40 -16 8 -24 4
-45 -21z"/>
<path d="M2652 2529 c-45 -29 -60 -45 -53 -52 8 -8 17 -5 33 10 36 32 63 43
108 43 44 0 72 -11 107 -42 15 -14 26 -17 38 -11 36 21 -81 93 -150 93 -11 0
-49 -19 -83 -41z"/>
<path d="M3445 2559 c-8 -12 33 -59 52 -59 18 0 16 13 -8 44 -22 28 -34 32
-44 15z"/>
<path d="M3671 2544 c-12 -15 -21 -31 -21 -35 0 -17 27 -9 49 14 18 21 20 26
7 36 -11 9 -18 7 -35 -15z"/>
<path d="M5476 2555 c-21 -7 -51 -26 -67 -41 -25 -24 -27 -29 -13 -37 11 -6
22 -3 37 11 35 31 63 42 107 42 44 0 72 -11 107 -42 15 -14 26 -17 38 -11 36
21 -83 94 -150 93 -11 -1 -37 -7 -59 -15z"/>
<path d="M6797 2563 c-9 -9 43 -63 60 -63 18 0 16 13 -8 44 -20 26 -39 33 -52
19z"/>
<path d="M7156 2555 c-21 -7 -51 -26 -67 -41 -25 -24 -27 -29 -13 -37 11 -6
22 -3 37 11 35 31 63 42 107 42 44 0 72 -11 107 -42 15 -14 26 -17 38 -11 36
21 -83 94 -150 93 -11 -1 -37 -7 -59 -15z"/>
<path d="M7365 2537 c40 -36 65 -46 65 -27 0 5 -24 22 -52 36 l-53 26 40 -35z"/>
<path d="M540 2545 c0 -8 10 -20 23 -26 12 -6 31 -20 43 -31 13 -11 28 -16 38
-12 15 6 15 9 -6 31 -24 26 -69 53 -88 53 -5 0 -10 -7 -10 -15z"/>
<path d="M1660 2550 c0 -5 6 -14 13 -19 63 -52 77 -60 92 -55 14 6 13 9 -7 31
-37 40 -98 67 -98 43z"/>
<path d="M1984 2535 c-19 -29 -11 -44 14 -29 19 12 29 54 13 54 -6 0 -18 -11
-27 -25z"/>
<path d="M3205 2541 c-16 -10 -38 -27 -48 -38 -17 -19 -17 -21 -1 -27 10 -4
25 1 38 12 31 28 61 42 93 42 l28 1 -25 14 c-33 19 -49 18 -85 -4z"/>
<path d="M4180 2545 c-8 -9 -8 -15 -2 -15 12 0 26 19 19 26 -2 2 -10 -2 -17
-11z"/>
<path d="M4325 2542 c-16 -11 -38 -28 -48 -39 -17 -19 -17 -21 -1 -27 10 -4
25 1 38 12 29 27 61 42 86 42 33 0 18 25 -16 28 -16 1 -42 -6 -59 -16z"/>
<path d="M9055 2549 c-8 -12 23 -49 42 -49 17 0 17 10 -3 38 -17 24 -29 28
-39 11z"/>
<path d="M5151 2541 c-12 -8 -12 -12 -2 -25 14 -17 41 -22 41 -8 0 20 -26 41
-39 33z"/>
<path d="M5765 2540 c3 -5 11 -10 16 -10 6 0 7 5 4 10 -3 6 -11 10 -16 10 -6
0 -7 -4 -4 -10z"/>
<path d="M857 2526 c-4 -10 -5 -21 -2 -24 9 -9 17 6 13 25 -3 17 -4 17 -11 -1z"/>
<path d="M6735 2529 c-4 -6 -5 -11 -4 -12 2 -1 16 -12 30 -25 16 -14 32 -20
43 -16 15 6 14 10 -10 35 -29 30 -48 36 -59 18z"/>
<path d="M8206 2511 c-24 -25 -25 -29 -10 -35 29 -11 71 42 46 58 -5 3 -21 -7
-36 -23z"/>
<path d="M9256 2524 c-8 -21 -1 -28 18 -21 9 4 13 13 10 22 -8 20 -20 19 -28
-1z"/>
<path d="M765 2520 c-3 -5 3 -10 15 -10 12 0 18 5 15 10 -3 6 -10 10 -15 10
-5 0 -12 -4 -15 -10z"/>
<path d="M1885 2520 c-3 -5 3 -10 15 -10 12 0 18 5 15 10 -3 6 -10 10 -15 10
-5 0 -12 -4 -15 -10z"/>
<path d="M3005 2520 c-3 -5 3 -10 15 -10 12 0 18 5 15 10 -3 6 -10 10 -15 10
-5 0 -12 -4 -15 -10z"/>
<path d="M3565 2520 c-3 -5 3 -10 15 -10 12 0 18 5 15 10 -3 6 -10 10 -15 10
-5 0 -12 -4 -15 -10z"/>
<path d="M5245 2520 c-3 -5 3 -10 15 -10 12 0 18 5 15 10 -3 6 -10 10 -15 10
-5 0 -12 -4 -15 -10z"/>
<path d="M6925 2520 c-3 -5 3 -10 15 -10 12 0 18 5 15 10 -3 6 -10 10 -15 10
-5 0 -12 -4 -15 -10z"/>
<path d="M7966 2523 c-11 -11 -6 -23 9 -23 8 0 15 4 15 9 0 13 -16 22 -24 14z"/>
<path d="M8045 2520 c-3 -5 3 -10 15 -10 12 0 18 5 15 10 -3 6 -10 10 -15 10
-5 0 -12 -4 -15 -10z"/>
<path d="M9165 2520 c-3 -5 3 -10 15 -10 12 0 18 5 15 10 -3 6 -10 10 -15 10
-5 0 -12 -4 -15 -10z"/>
<path d="M3420 2497 c0 -28 6 -32 28 -19 9 7 8 13 -8 27 -20 18 -20 18 -20 -8z"/>
<path d="M5808 2513 c7 -3 16 -2 19 1 4 3 -2 6 -13 5 -11 0 -14 -3 -6 -6z"/>
<path d="M2696 2500 c-42 -13 -69 -40 -55 -56 9 -11 16 -10 36 6 33 26 93 26
126 0 21 -17 27 -18 36 -6 27 32 -82 75 -143 56z"/>
<path d="M3256 2500 c-42 -13 -69 -40 -55 -56 9 -11 16 -10 36 6 33 26 93 26
126 0 21 -17 27 -18 36 -6 27 32 -82 75 -143 56z"/>
<path d="M3711 2496 c-9 -11 -8 -15 5 -20 22 -8 24 -8 24 8 0 21 -16 28 -29
12z"/>
<path d="M4376 2500 c-42 -13 -69 -40 -55 -56 9 -11 16 -10 36 6 15 11 41 20
60 20 27 0 34 4 31 18 -4 20 -31 24 -72 12z"/>
<path d="M5086 2501 c-9 -14 19 -32 38 -25 13 5 14 9 5 20 -13 16 -35 18 -43
5z"/>
<path d="M5496 2500 c-42 -13 -69 -40 -55 -56 9 -11 16 -10 36 6 33 26 93 26
126 0 21 -17 27 -18 36 -6 27 32 -82 75 -143 56z"/>
<path d="M7176 2500 c-42 -13 -69 -40 -55 -56 9 -11 16 -10 36 6 33 26 93 26
126 0 21 -17 27 -18 36 -6 27 32 -82 75 -143 56z"/>
<path d="M9020 2490 c0 -22 1 -23 24 -14 13 5 14 9 5 20 -16 20 -29 17 -29 -6z"/>
<path d="M540 2483 c0 -10 11 -26 24 -35 20 -15 26 -15 35 -4 9 11 6 19 -18
35 -35 26 -41 26 -41 4z"/>
<path d="M6670 2485 c-10 -12 -9 -15 7 -15 11 0 32 -9 46 -20 21 -17 27 -18
36 -6 9 11 6 18 -18 35 -34 25 -54 26 -71 6z"/>
<path d="M725 2481 c-67 -17 -155 -78 -155 -108 0 -21 20 -15 58 18 55 49 97
62 174 57 52 -4 68 -2 68 8 0 7 -4 15 -8 18 -16 10 -108 15 -137 7z"/>
<path d="M1670 2477 c0 -8 8 -21 19 -31 16 -14 20 -15 30 -2 10 11 7 17 -11
30 -27 20 -38 20 -38 3z"/>
<path d="M1845 2481 c-67 -17 -155 -78 -155 -108 0 -21 20 -15 58 18 20 17 50
38 68 45 43 18 126 18 169 0 32 -14 35 -14 35 3 0 10 -11 23 -25 29 -34 15
-114 22 -150 13z"/>
<path d="M2965 2481 c-67 -17 -155 -78 -155 -108 0 -21 20 -15 58 18 48 42 91
59 152 59 61 0 104 -17 152 -59 54 -47 78 -39 37 13 -45 57 -170 96 -244 77z"/>
<path d="M3525 2481 c-67 -17 -155 -78 -155 -108 0 -22 20 -15 62 22 53 44 96
58 168 53 42 -3 70 -12 100 -32 l42 -27 -4 23 c-6 47 -136 89 -213 69z"/>
<path d="M4146 2483 c-15 -15 -4 -33 19 -33 37 0 86 -23 127 -59 54 -47 78
-39 37 13 -33 43 -163 99 -183 79z"/>
<path d="M5205 2481 c-67 -17 -155 -78 -155 -108 0 -21 20 -15 58 18 48 42 91
59 152 59 61 0 104 -17 152 -59 54 -47 78 -39 37 13 -45 57 -170 96 -244 77z"/>
<path d="M5765 2481 c-66 -16 -155 -78 -155 -108 0 -21 20 -15 58 18 20 17 50
38 68 45 49 20 133 18 178 -6 l39 -19 -23 24 c-45 48 -97 62 -165 46z"/>
<path d="M6885 2481 c-67 -17 -155 -78 -155 -108 0 -21 20 -15 58 18 48 42 91
59 152 59 61 0 104 -17 152 -59 54 -47 78 -39 37 13 -45 57 -170 96 -244 77z"/>
<path d="M8004 2481 c-41 -11 -54 -19 -54 -38 0 -11 5 -13 18 -8 32 14 130 17
164 6 20 -6 53 -27 76 -46 59 -51 84 -45 41 9 -45 57 -170 96 -245 77z"/>
<path d="M9125 2481 c-67 -17 -155 -78 -155 -108 0 -21 20 -15 58 18 20 17 50
38 68 45 43 18 125 18 169 0 29 -12 34 -12 39 0 12 31 -112 62 -179 45z"/>
<path d="M5045 2470 c-4 -6 -1 -17 5 -26 10 -11 16 -12 26 -3 11 9 11 15 3 25
-14 17 -25 18 -34 4z"/>
<path d="M7385 2458 c-48 -24 -95 -67 -95 -85 0 -21 20 -15 58 18 43 38 90 59
133 59 27 0 30 2 19 15 -17 21 -68 18 -115 -7z"/>
<path d="M8242 2468 c-8 -8 -9 -15 0 -25 14 -17 39 2 31 23 -6 17 -15 18 -31
2z"/>
<path d="M2546 2452 c-3 -5 16 -24 41 -43 26 -19 52 -38 59 -44 22 -16 28 3
10 30 -28 43 -97 78 -110 57z"/>
<path d="M2699 2431 c-18 -15 -21 -22 -13 -31 9 -9 17 -8 33 2 17 11 25 11 42
0 16 -10 24 -11 33 -2 13 14 -26 50 -54 50 -10 0 -28 -9 -41 -19z"/>
<path d="M3259 2431 c-18 -15 -21 -22 -13 -31 9 -9 17 -8 33 2 17 11 25 11 42
0 16 -10 24 -11 33 -2 13 14 -26 50 -54 50 -10 0 -28 -9 -41 -19z"/>
<path d="M4379 2431 c-18 -15 -21 -22 -13 -31 9 -9 17 -8 33 2 17 10 25 10 41
0 18 -11 20 -10 20 12 0 39 -43 48 -81 17z"/>
<path d="M5499 2431 c-18 -15 -21 -22 -13 -31 9 -9 17 -8 33 2 17 11 25 11 42
0 16 -10 24 -11 33 -2 13 14 -26 50 -54 50 -10 0 -28 -9 -41 -19z"/>
<path d="M6619 2431 c-18 -15 -21 -22 -13 -31 9 -9 17 -8 33 2 17 11 25 11 42
0 16 -10 24 -11 33 -2 13 14 -26 50 -54 50 -10 0 -28 -9 -41 -19z"/>
<path d="M7179 2431 c-18 -15 -21 -22 -13 -31 9 -9 17 -8 33 2 17 11 25 11 42
0 16 -10 24 -11 33 -2 13 14 -26 50 -54 50 -10 0 -28 -9 -41 -19z"/>
<path d="M4994 2426 c-9 -10 -7 -16 8 -25 27 -17 47 1 28 24 -15 18 -21 18
-36 1z"/>
<path d="M540 2410 c0 -19 3 -21 12 -12 9 9 9 15 0 24 -9 9 -12 7 -12 -12z"/>
<path d="M716 2415 c-21 -7 -51 -26 -67 -41 -25 -24 -27 -29 -14 -37 11 -6 25
-1 46 17 17 14 41 29 55 32 27 7 90 1 117 -10 13 -6 17 -3 17 12 0 16 -10 24
-37 31 -49 14 -69 13 -117 -4z"/>
<path d="M1836 2416 c-21 -8 -51 -27 -67 -42 -25 -24 -27 -29 -13 -37 11 -6
22 -3 37 11 52 47 128 56 184 23 31 -19 31 -19 36 0 11 41 -106 71 -177 45z"/>
<path d="M2956 2415 c-21 -7 -51 -26 -67 -41 -25 -24 -27 -29 -13 -37 11 -6
22 -3 37 11 35 31 63 42 107 42 44 0 72 -11 107 -42 15 -14 26 -17 38 -11 36
21 -83 94 -150 93 -11 -1 -37 -7 -59 -15z"/>
<path d="M3516 2415 c-21 -7 -51 -26 -67 -41 -25 -24 -27 -29 -13 -37 11 -6
22 -3 37 11 35 31 63 42 107 42 44 0 72 -11 107 -42 15 -14 26 -17 38 -11 36
21 -83 94 -150 93 -11 -1 -37 -7 -59 -15z"/>
<path d="M4140 2411 c0 -15 6 -21 21 -21 24 0 56 -16 85 -42 13 -11 28 -16 38
-12 34 13 -42 74 -111 89 -29 6 -33 4 -33 -14z"/>
<path d="M5196 2415 c-21 -7 -51 -26 -67 -41 -25 -24 -27 -29 -13 -37 11 -6
22 -3 37 11 35 31 63 42 107 42 44 0 72 -11 107 -42 15 -14 26 -17 38 -11 36
21 -83 94 -150 93 -11 -1 -37 -7 -59 -15z"/>
<path d="M5756 2415 c-21 -7 -51 -26 -67 -41 -25 -24 -27 -29 -13 -37 11 -6
22 -3 37 11 35 31 63 42 107 42 44 0 72 -11 107 -42 15 -14 26 -17 38 -11 36
21 -83 94 -150 93 -11 -1 -37 -7 -59 -15z"/>
<path d="M6876 2415 c-21 -7 -51 -26 -67 -41 -25 -24 -27 -29 -13 -37 11 -6
22 -3 37 11 35 31 63 42 107 42 44 0 72 -11 107 -42 15 -14 26 -17 38 -11 36
21 -83 94 -150 93 -11 -1 -37 -7 -59 -15z"/>
<path d="M7436 2415 c-21 -7 -51 -26 -67 -41 -25 -24 -27 -29 -13 -37 11 -6
22 -3 37 11 53 48 127 56 187 21 l35 -20 -42 41 c-46 44 -71 49 -137 25z"/>
<path d="M8000 2417 c-41 -14 -59 -55 -19 -42 39 12 98 18 123 11 14 -3 38
-18 55 -32 22 -18 35 -23 46 -16 14 7 11 13 -19 40 -55 48 -119 62 -186 39z"/>
<path d="M9116 2415 c-21 -7 -51 -26 -67 -41 -25 -24 -27 -29 -13 -37 11 -6
22 -3 37 11 50 45 121 56 178 27 27 -14 30 -14 36 1 7 19 -8 30 -57 44 -46 13
-67 12 -114 -5z"/>
<path d="M2506 2405 c-3 -9 3 -19 17 -26 12 -6 31 -20 43 -31 13 -11 28 -16
38 -12 15 6 15 9 -6 31 -20 22 -68 53 -81 53 -3 0 -7 -7 -11 -15z"/>
<path d="M8280 2411 c0 -6 5 -13 10 -16 6 -3 10 1 10 9 0 9 -4 16 -10 16 -5 0
-10 -4 -10 -9z"/>
<path d="M6567 2393 c-12 -12 -7 -33 8 -33 17 0 19 9 7 28 -5 7 -11 9 -15 5z"/>
<path d="M2725 2380 c-3 -5 3 -10 15 -10 12 0 18 5 15 10 -3 6 -10 10 -15 10
-5 0 -12 -4 -15 -10z"/>
<path d="M3285 2380 c-3 -5 3 -10 15 -10 12 0 18 5 15 10 -3 6 -10 10 -15 10
-5 0 -12 -4 -15 -10z"/>
<path d="M4405 2380 c-3 -5 3 -10 15 -10 12 0 18 5 15 10 -3 6 -10 10 -15 10
-5 0 -12 -4 -15 -10z"/>
<path d="M4965 2380 c-3 -5 3 -10 15 -10 12 0 18 5 15 10 -3 6 -10 10 -15 10
-5 0 -12 -4 -15 -10z"/>
<path d="M5525 2380 c-3 -5 3 -10 15 -10 12 0 18 5 15 10 -3 6 -10 10 -15 10
-5 0 -12 -4 -15 -10z"/>
<path d="M6645 2380 c-3 -5 3 -10 15 -10 12 0 18 5 15 10 -3 6 -10 10 -15 10
-5 0 -12 -4 -15 -10z"/>
<path d="M7205 2380 c-3 -5 3 -10 15 -10 12 0 18 5 15 10 -3 6 -10 10 -15 10
-5 0 -12 -4 -15 -10z"/>
<path d="M736 2360 c-42 -13 -69 -40 -55 -56 9 -11 16 -10 36 6 34 26 93 26
127 -1 l26 -20 0 23 c0 40 -74 67 -134 48z"/>
<path d="M1856 2360 c-42 -13 -69 -40 -55 -56 9 -11 16 -10 36 6 34 26 93 26
127 -1 14 -11 26 -18 26 -16 0 3 2 12 6 20 12 32 -84 64 -140 47z"/>
<path d="M2974 2359 c-17 -5 -36 -15 -42 -21 -8 -10 10 -13 89 -13 54 0 99 1
99 1 0 1 -11 9 -24 17 -31 21 -84 28 -122 16z"/>
<path d="M3536 2360 c-42 -13 -69 -40 -55 -56 9 -11 16 -10 36 6 33 26 93 26
126 0 21 -17 27 -18 36 -6 27 32 -82 75 -143 56z"/>
<path d="M4140 2350 c0 -13 7 -20 19 -20 10 0 30 -9 44 -20 21 -17 27 -18 36
-6 9 11 6 18 -16 34 -15 10 -40 22 -55 26 -24 5 -28 3 -28 -14z"/>
<path d="M5216 2360 c-42 -13 -69 -40 -55 -56 9 -11 16 -10 36 6 28 22 83 26
114 10 11 -7 26 -7 35 -2 13 7 12 11 -9 25 -32 20 -85 28 -121 17z"/>
<path d="M5776 2360 c-42 -13 -69 -40 -55 -56 9 -11 16 -10 36 6 33 26 93 26
126 0 21 -17 27 -18 36 -6 27 32 -82 75 -143 56z"/>
<path d="M6896 2360 c-42 -13 -69 -40 -55 -56 9 -11 16 -10 37 7 19 15 39 20
72 18 25 -1 54 -1 65 0 19 1 19 1 -1 15 -27 19 -83 27 -118 16z"/>
<path d="M7456 2360 c-42 -13 -69 -40 -55 -56 9 -11 16 -10 36 6 33 26 93 26
126 0 21 -17 27 -18 36 -6 27 32 -82 75 -143 56z"/>
<path d="M8013 2359 c-34 -10 -38 -16 -25 -36 5 -8 13 -9 22 -3 26 17 86 11
113 -10 21 -17 27 -18 36 -6 9 11 6 18 -16 34 -36 25 -88 34 -130 21z"/>
<path d="M9136 2360 c-42 -13 -69 -40 -55 -56 9 -11 16 -10 36 6 28 22 83 26
115 9 16 -8 22 -8 29 2 17 29 -70 56 -125 39z"/>
<path d="M2460 2345 c-10 -13 -9 -15 12 -15 14 0 37 -9 51 -20 21 -17 27 -18
36 -6 9 11 6 18 -18 35 -34 25 -64 27 -81 6z"/>
<path d="M2685 2341 c-49 -13 -112 -49 -134 -77 -41 -52 -17 -60 37 -13 20 17
50 38 68 45 39 16 121 18 160 4 15 -6 36 -8 47 -4 19 6 17 8 -15 25 -41 21
-121 31 -163 20z"/>
<path d="M3245 2341 c-16 -4 -41 -14 -55 -21 -23 -12 -24 -14 -5 -20 11 -4 30
-3 43 1 35 13 119 11 156 -5 18 -7 48 -28 68 -45 54 -47 78 -39 37 13 -45 57
-170 96 -244 77z"/>
<path d="M4365 2341 c-49 -12 -112 -48 -134 -77 -41 -52 -17 -60 37 -13 47 41
91 59 147 59 39 0 46 3 43 18 -4 19 -44 25 -93 13z"/>
<path d="M4934 2341 c-12 -5 -24 -16 -27 -23 -4 -11 7 -13 53 -10 72 5 115 -9
168 -53 59 -51 84 -45 41 9 -43 55 -181 100 -235 77z"/>
<path d="M5485 2341 c-26 -6 -23 -8 30 -14 68 -8 144 -41 193 -82 39 -33 54
-26 26 13 -45 60 -171 102 -249 83z"/>
<path d="M6615 2344 c-56 -13 -116 -50 -135 -82 -12 -19 -19 -37 -16 -39 3 -3
24 11 47 31 23 19 57 41 77 47 54 18 144 7 189 -23 24 -16 45 -23 53 -18 47
29 -138 102 -215 84z"/>
<path d="M7168 2343 c-46 -7 -31 -21 30 -28 89 -9 125 -22 169 -60 60 -51 85
-46 42 9 -43 55 -160 93 -241 79z"/>
<path d="M8285 2341 c-48 -12 -111 -48 -134 -77 -41 -52 -17 -60 37 -13 41 37
90 59 128 59 20 0 25 4 20 16 -3 9 -6 18 -6 20 0 5 -6 4 -45 -5z"/>
<path d="M540 2326 c0 -8 15 -19 34 -26 18 -6 51 -26 74 -45 59 -51 84 -45 41
9 -22 28 -107 76 -134 76 -8 0 -15 -6 -15 -14z"/>
<path d="M1660 2326 c0 -8 15 -19 34 -26 18 -6 51 -26 74 -45 59 -51 84 -45
41 9 -22 28 -107 76 -134 76 -8 0 -15 -6 -15 -14z"/>
<path d="M8947 2333 c-14 -13 -6 -22 27 -33 18 -6 51 -26 74 -45 59 -51 84
-45 41 9 -12 15 -43 38 -70 51 -51 26 -62 29 -72 18z"/>
<path d="M5968 2310 c-35 -19 -78 -63 -78 -81 0 -18 23 -8 63 26 23 20 52 38
65 42 18 4 20 8 11 19 -14 17 -16 17 -61 -6z"/>
<path d="M739 2291 c-18 -15 -21 -22 -13 -31 9 -9 17 -8 33 2 17 11 25 11 42
0 16 -10 24 -11 33 -2 13 14 -26 50 -54 50 -10 0 -28 -9 -41 -19z"/>
<path d="M1859 2291 c-18 -15 -21 -22 -13 -31 9 -9 17 -8 33 2 17 11 25 11 42
0 16 -10 24 -11 33 -2 13 14 -26 50 -54 50 -10 0 -28 -9 -41 -19z"/>
<path d="M2424 2285 c-20 -31 -13 -41 15 -23 17 11 25 11 42 0 16 -10 24 -11
33 -2 8 9 5 16 -13 31 -32 26 -57 24 -77 -6z"/>
<path d="M3539 2291 c-18 -15 -21 -22 -13 -31 9 -9 17 -8 33 2 17 11 25 11 42
0 16 -10 24 -11 33 -2 13 14 -26 50 -54 50 -10 0 -28 -9 -41 -19z"/>
<path d="M3684 2276 c-35 -35 -43 -56 -21 -56 18 1 77 57 77 75 0 24 -19 18
-56 -19z"/>
<path d="M4140 2292 c0 -24 39 -47 54 -32 8 9 5 16 -13 31 -29 24 -41 24 -41
1z"/>
<path d="M5220 2292 c-35 -28 -16 -48 20 -22 15 11 33 20 40 20 6 0 8 5 5 10
-10 16 -41 12 -65 -8z"/>
<path d="M5779 2291 c-18 -15 -21 -22 -13 -31 9 -9 17 -8 33 2 17 11 25 11 42
0 16 -10 24 -11 33 -2 13 14 -26 50 -54 50 -10 0 -28 -9 -41 -19z"/>
<path d="M7459 2291 c-18 -15 -21 -22 -13 -31 9 -9 17 -8 33 2 17 11 25 11 42
0 16 -10 24 -11 33 -2 13 14 -26 50 -54 50 -10 0 -28 -9 -41 -19z"/>
<path d="M8025 2296 c-11 -8 -16 -19 -12 -30 6 -14 10 -14 27 -4 16 10 24 10
41 0 16 -10 24 -11 33 -2 8 9 5 16 -13 31 -27 22 -50 24 -76 5z"/>
<path d="M9139 2291 c-18 -15 -21 -22 -13 -31 9 -9 17 -8 33 2 17 11 25 11 42
0 16 -10 24 -11 33 -2 13 14 -26 50 -54 50 -10 0 -28 -9 -41 -19z"/>
<path d="M7596 2269 c-28 -33 -33 -49 -15 -49 18 0 76 55 71 68 -7 21 -29 13
-56 -19z"/>
<path d="M1637 2270 c-3 -13 2 -19 23 -23 15 -3 41 -17 58 -32 18 -15 36 -23
47 -19 29 12 -32 66 -95 84 -23 7 -29 5 -33 -10z"/>
<path d="M2676 2276 c-21 -8 -51 -27 -67 -42 -25 -24 -27 -29 -13 -37 11 -6
22 -3 37 11 36 32 63 42 116 42 43 0 72 12 59 26 -13 12 -97 13 -132 0z"/>
<path d="M3252 2283 c-22 -4 -23 -5 -5 -18 10 -8 35 -15 56 -15 42 0 70 -12
104 -42 15 -14 26 -17 38 -11 14 8 12 14 -19 41 -49 43 -106 58 -174 45z"/>
<path d="M4356 2276 c-21 -8 -51 -27 -67 -42 -25 -24 -27 -29 -13 -37 11 -6
22 -3 37 11 35 31 63 42 107 42 34 0 41 3 38 18 -4 22 -51 26 -102 8z"/>
<path d="M4917 2275 c-45 -15 -40 -11 -61 -52 -17 -34 -8 -45 15 -17 21 26 66
44 109 44 44 0 72 -11 107 -42 15 -14 26 -17 38 -11 36 21 -83 94 -150 93 -11
-1 -37 -7 -58 -15z"/>
<path d="M6596 2275 c-21 -7 -51 -26 -67 -41 -25 -24 -27 -29 -13 -37 11 -6
22 -3 37 11 53 48 128 57 186 21 25 -15 37 -17 45 -9 22 22 -68 71 -129 70
-11 -1 -37 -7 -59 -15z"/>
<path d="M8276 2275 c-21 -7 -51 -26 -67 -41 -25 -24 -27 -29 -13 -37 11 -6
22 -3 37 11 34 30 62 42 102 42 33 0 35 2 25 20 -12 23 -30 24 -84 5z"/>
<path d="M540 2265 c0 -8 10 -20 23 -26 12 -6 31 -20 43 -31 13 -11 28 -16 38
-12 15 6 15 9 -6 31 -24 26 -69 53 -88 53 -5 0 -10 -7 -10 -15z"/>
<path d="M6005 2261 c-16 -10 -38 -27 -48 -38 -16 -19 -16 -21 -1 -27 10 -4
27 3 45 18 16 14 38 27 48 31 12 4 18 12 14 21 -7 19 -22 18 -58 -5z"/>
<path d="M7319 2240 c28 -22 54 -40 57 -40 13 0 -40 52 -68 66 -45 24 -42 16
11 -26z"/>
<path d="M8917 2266 c-4 -9 4 -16 22 -19 16 -3 42 -17 59 -32 18 -15 36 -23
47 -19 14 6 13 9 -7 31 -44 47 -110 68 -121 39z"/>
<path d="M857 2246 c-4 -10 -5 -21 -2 -24 9 -9 17 6 13 25 -3 17 -4 17 -11 -1z"/>
<path d="M765 2240 c-3 -5 3 -10 15 -10 12 0 18 5 15 10 -3 6 -10 10 -15 10
-5 0 -12 -4 -15 -10z"/>
<path d="M1885 2240 c-3 -5 3 -10 15 -10 12 0 18 5 15 10 -3 6 -10 10 -15 10
-5 0 -12 -4 -15 -10z"/>
<path d="M2445 2240 c-3 -5 3 -10 15 -10 12 0 18 5 15 10 -3 6 -10 10 -15 10
-5 0 -12 -4 -15 -10z"/>
<path d="M3565 2240 c-3 -5 3 -10 15 -10 12 0 18 5 15 10 -3 6 -10 10 -15 10
-5 0 -12 -4 -15 -10z"/>
<path d="M4140 2240 c0 -5 5 -10 11 -10 5 0 7 5 4 10 -3 6 -8 10 -11 10 -2 0
-4 -4 -4 -10z"/>
<path d="M5805 2240 c-3 -5 3 -10 15 -10 12 0 18 5 15 10 -3 6 -10 10 -15 10
-5 0 -12 -4 -15 -10z"/>
<path d="M7485 2240 c-3 -5 3 -10 15 -10 12 0 18 5 15 10 -3 6 -10 10 -15 10
-5 0 -12 -4 -15 -10z"/>
<path d="M7641 2226 c-20 -21 -20 -24 -5 -30 21 -8 55 20 47 40 -7 20 -16 18
-42 -10z"/>
<path d="M8045 2240 c-3 -5 3 -10 15 -10 12 0 18 5 15 10 -3 6 -10 10 -15 10
-5 0 -12 -4 -15 -10z"/>
<path d="M9165 2240 c-3 -5 3 -10 15 -10 12 0 18 5 15 10 -3 6 -10 10 -15 10
-5 0 -12 -4 -15 -10z"/>
<path d="M3717 2222 c-17 -18 -17 -20 -1 -26 22 -8 26 -3 22 24 -3 22 -3 22
-21 2z"/>
<path d="M1612 2218 c-19 -19 -14 -28 17 -28 15 0 40 -9 54 -20 21 -17 27 -18
36 -6 23 27 -82 79 -107 54z"/>
<path d="M2696 2220 c-42 -13 -69 -40 -55 -56 9 -11 16 -10 36 6 14 11 34 20
44 20 10 0 23 9 29 20 9 17 8 20 -7 19 -10 0 -31 -5 -47 -9z"/>
<path d="M3307 2216 c4 -8 25 -26 45 -40 30 -20 39 -22 48 -11 8 10 4 18 -17
33 -15 10 -41 22 -56 26 -23 5 -27 4 -20 -8z"/>
<path d="M4376 2220 c-42 -13 -69 -40 -55 -56 9 -11 16 -10 36 6 16 12 41 20
64 20 27 0 39 4 39 14 0 25 -33 31 -84 16z"/>
<path d="M4936 2220 c-42 -13 -69 -40 -55 -56 9 -11 16 -10 36 6 33 26 93 26
126 0 21 -17 27 -18 36 -6 27 32 -82 75 -143 56z"/>
<path d="M6616 2220 c-42 -13 -69 -40 -55 -56 9 -11 16 -10 36 6 31 24 90 26
121 4 12 -8 27 -12 32 -9 44 27 -70 75 -134 55z"/>
<path d="M8296 2220 c-42 -13 -69 -40 -55 -56 9 -11 16 -9 39 8 23 16 38 20
74 16 41 -5 44 -4 36 12 -16 30 -42 35 -94 20z"/>
<path d="M8896 2223 c-14 -14 -5 -33 18 -33 13 0 35 -9 49 -20 21 -17 27 -18
36 -6 9 11 6 18 -16 34 -32 22 -77 35 -87 25z"/>
<path d="M540 2203 c0 -10 11 -26 24 -35 20 -15 26 -15 35 -4 9 11 6 19 -18
35 -35 26 -41 26 -41 4z"/>
<path d="M6016 2199 c-21 -17 -24 -24 -15 -35 9 -11 15 -11 36 6 14 11 34 20
44 20 12 0 16 5 13 15 -9 21 -47 19 -78 -6z"/>
<path d="M725 2201 c-67 -17 -155 -78 -155 -108 0 -21 20 -15 58 18 55 49 97
62 174 57 52 -4 68 -2 68 8 0 7 -4 15 -8 18 -16 10 -108 15 -137 7z"/>
<path d="M1845 2201 c-66 -17 -155 -78 -155 -108 0 -20 24 -16 45 7 34 38 86
63 143 69 41 4 57 10 57 21 0 17 -44 23 -90 11z"/>
<path d="M2409 2203 c-15 -2 -31 -14 -37 -28 -11 -23 -10 -24 14 -15 37 14
119 12 158 -4 18 -7 48 -28 68 -45 54 -47 78 -39 37 13 -43 54 -160 93 -240
79z"/>
<path d="M3525 2201 c-78 -20 -153 -76 -141 -106 5 -14 13 -11 47 19 54 45 97
59 169 54 42 -3 70 -12 100 -32 l42 -27 -4 23 c-6 47 -136 89 -213 69z"/>
<path d="M4140 2190 c0 -15 6 -20 25 -20 37 0 86 -23 127 -59 54 -47 78 -39
37 13 -25 31 -99 70 -151 80 -34 6 -38 5 -38 -14z"/>
<path d="M5778 2204 c-10 -3 -15 -11 -11 -20 3 -9 21 -14 54 -14 60 0 104 -17
151 -59 54 -47 78 -39 37 13 -41 52 -172 97 -231 80z"/>
<path d="M7455 2204 c-44 -11 -76 -27 -72 -38 2 -6 13 -10 23 -8 123 21 178
11 242 -43 59 -51 84 -45 41 9 -41 53 -168 96 -234 80z"/>
<path d="M8043 2196 c4 -10 7 -20 7 -22 0 -2 14 -4 30 -4 42 0 89 -21 132 -59
54 -47 78 -39 37 13 -28 35 -102 72 -163 81 -44 7 -48 6 -43 -9z"/>
<path d="M9125 2201 c-66 -16 -155 -78 -155 -108 0 -21 20 -15 58 18 44 39 91
59 136 59 29 0 46 13 46 36 0 6 -51 3 -85 -5z"/>
<path d="M6446 2193 c-13 -13 -5 -31 17 -37 12 -3 41 -21 64 -41 60 -51 85
-46 42 9 -23 29 -113 79 -123 69z"/>
<path d="M7681 2187 c-9 -11 -8 -17 4 -27 12 -10 16 -9 21 5 9 23 -10 40 -25
22z"/>
<path d="M5125 2168 c-55 -30 -95 -88 -61 -88 15 0 86 74 86 90 0 12 0 12 -25
-2z"/>
<path d="M1579 2151 c-18 -15 -21 -22 -13 -31 9 -9 17 -8 33 2 17 11 25 11 42
0 16 -10 24 -11 33 -2 13 14 -26 50 -54 50 -10 0 -28 -9 -41 -19z"/>
<path d="M4379 2151 c-18 -15 -21 -22 -13 -31 9 -9 17 -8 33 2 17 10 25 10 41
0 18 -11 20 -10 20 12 0 39 -43 48 -81 17z"/>
<path d="M4824 2156 c-3 -9 7 -27 28 -45 52 -48 78 -39 37 13 -29 37 -58 51
-65 32z"/>
<path d="M4939 2151 c-18 -15 -21 -22 -13 -31 9 -9 17 -8 33 2 17 11 25 11 42
0 16 -10 24 -11 33 -2 13 14 -26 50 -54 50 -10 0 -28 -9 -41 -19z"/>
<path d="M6059 2151 c-19 -16 -22 -22 -11 -32 9 -10 15 -10 24 -1 7 7 21 12
31 12 13 0 17 5 13 16 -3 9 -6 18 -6 20 0 11 -30 2 -51 -15z"/>
<path d="M6619 2151 c-18 -15 -21 -22 -13 -31 9 -9 17 -8 33 2 17 11 25 11 42
0 16 -10 24 -11 33 -2 13 14 -26 50 -54 50 -10 0 -28 -9 -41 -19z"/>
<path d="M8299 2151 c-18 -15 -21 -22 -13 -31 9 -9 17 -8 33 2 17 11 25 11 42
0 16 -10 24 -11 33 -2 13 14 -26 50 -54 50 -10 0 -28 -9 -41 -19z"/>
<path d="M8873 2158 c-12 -16 -24 -48 -18 -48 3 0 14 6 25 12 16 10 24 10 41
0 16 -10 24 -11 33 -2 8 9 5 16 -13 31 -27 22 -54 25 -68 7z"/>
<path d="M2690 2145 c-7 -9 -11 -17 -9 -20 3 -2 10 5 17 15 14 24 10 26 -8 5z"/>
<path d="M540 2130 c0 -19 3 -21 12 -12 9 9 9 15 0 24 -9 9 -12 7 -12 -12z"/>
<path d="M716 2135 c-21 -7 -51 -26 -67 -41 -25 -24 -27 -29 -13 -37 11 -6 22
-3 37 11 35 31 63 42 107 42 44 0 72 -11 107 -42 15 -14 26 -17 38 -11 36 21
-83 94 -150 93 -11 -1 -37 -7 -59 -15z"/>
<path d="M1836 2135 c-21 -7 -51 -26 -67 -41 -25 -24 -27 -29 -14 -37 11 -6
25 -1 46 17 17 14 43 29 57 32 30 8 52 22 52 35 0 13 -29 10 -74 -6z"/>
<path d="M2395 2135 c-22 -8 -41 -15 -41 -15 -3 0 -11 -50 -8 -50 2 0 18 9 36
20 57 35 132 25 185 -22 15 -14 26 -17 38 -11 36 21 -83 94 -150 93 -11 -1
-38 -7 -60 -15z"/>
<path d="M3516 2135 c-21 -7 -51 -26 -67 -41 -25 -24 -27 -29 -13 -37 11 -6
22 -3 37 11 35 31 63 42 107 42 44 0 72 -11 107 -42 15 -14 26 -17 38 -11 36
21 -83 94 -150 93 -11 -1 -37 -7 -59 -15z"/>
<path d="M4140 2131 c0 -15 6 -21 21 -21 24 0 56 -16 85 -42 13 -11 28 -16 38
-12 34 13 -42 74 -111 89 -29 6 -33 4 -33 -14z"/>
<path d="M5794 2134 c3 -9 6 -18 6 -20 0 -2 14 -4 31 -4 34 0 64 -13 96 -42
15 -14 26 -17 38 -11 14 8 12 14 -19 41 -52 45 -166 73 -152 36z"/>
<path d="M7443 2139 c-24 -7 -33 -15 -33 -30 0 -16 4 -19 18 -13 26 11 89 17
116 10 14 -3 38 -18 55 -32 22 -18 35 -23 46 -16 14 7 11 13 -19 40 -53 47
-115 60 -183 41z"/>
<path d="M8070 2143 c0 -16 15 -30 38 -37 12 -4 35 -18 51 -32 18 -15 35 -22
46 -18 14 6 13 9 -7 31 -34 37 -128 78 -128 56z"/>
<path d="M9116 2135 c-21 -7 -51 -26 -67 -41 -25 -24 -27 -29 -14 -37 11 -6
25 -1 46 17 17 14 43 29 57 33 26 6 42 19 42 36 0 10 -19 8 -64 -8z"/>
<path d="M6420 2125 c0 -8 10 -20 23 -26 12 -6 31 -20 43 -31 13 -11 28 -16
38 -12 15 6 15 9 -6 31 -24 26 -69 53 -88 53 -5 0 -10 -7 -10 -15z"/>
<path d="M1507 2122 c-18 -4 -18 -5 -1 -23 17 -19 44 -26 44 -11 0 18 -26 38
-43 34z"/>
<path d="M945 2100 c18 -20 45 -27 45 -12 0 15 -24 32 -44 32 -18 0 -19 -1 -1
-20z"/>
<path d="M1143 2113 c-17 -6 -17 -33 0 -33 8 0 22 9 32 20 17 19 17 20 -1 19
-10 0 -25 -3 -31 -6z"/>
<path d="M1210 2093 c-28 -23 -30 -27 -15 -36 12 -6 23 -3 38 11 35 31 63 42
107 42 44 0 72 -11 107 -42 15 -14 26 -17 38 -11 15 9 13 13 -15 36 -29 25
-38 27 -130 27 -92 0 -101 -2 -130 -27z"/>
<path d="M8417 2113 c-12 -12 -7 -33 8 -33 17 0 19 9 7 28 -5 7 -11 9 -15 5z"/>
<path d="M1045 2100 c-3 -5 3 -10 15 -10 12 0 18 5 15 10 -3 6 -10 10 -15 10
-5 0 -12 -4 -15 -10z"/>
<path d="M1605 2100 c-3 -5 3 -10 15 -10 12 0 18 5 15 10 -3 6 -10 10 -15 10
-5 0 -12 -4 -15 -10z"/>
<path d="M4405 2100 c-3 -5 3 -10 15 -10 12 0 18 5 15 10 -3 6 -10 10 -15 10
-5 0 -12 -4 -15 -10z"/>
<path d="M4806 2094 c-9 -24 17 -49 38 -37 15 8 14 12 -7 32 -22 20 -25 21
-31 5z"/>
<path d="M4965 2100 c-3 -5 3 -10 15 -10 12 0 18 5 15 10 -3 6 -10 10 -15 10
-5 0 -12 -4 -15 -10z"/>
<path d="M6085 2100 c-3 -5 3 -10 15 -10 12 0 18 5 15 10 -3 6 -10 10 -15 10
-5 0 -12 -4 -15 -10z"/>
<path d="M6645 2100 c-3 -5 3 -10 15 -10 12 0 18 5 15 10 -3 6 -10 10 -15 10
-5 0 -12 -4 -15 -10z"/>
<path d="M8325 2100 c-3 -5 3 -10 15 -10 12 0 18 5 15 10 -3 6 -10 10 -15 10
-5 0 -12 -4 -15 -10z"/>
<path d="M8885 2100 c-3 -5 3 -10 15 -10 12 0 18 5 15 10 -3 6 -10 10 -15 10
-5 0 -12 -4 -15 -10z"/>
<path d="M736 2080 c-42 -13 -69 -40 -55 -56 9 -11 16 -10 36 6 33 26 93 26
126 0 21 -17 27 -18 36 -6 27 32 -82 75 -143 56z"/>
<path d="M1296 2080 c-42 -13 -69 -40 -55 -56 9 -11 16 -10 36 6 33 26 93 26
126 0 21 -17 27 -18 36 -6 27 32 -82 75 -143 56z"/>
<path d="M2416 2080 c-42 -13 -69 -40 -55 -56 9 -11 16 -10 36 6 33 26 93 26
126 0 21 -17 27 -18 36 -6 27 32 -82 75 -143 56z"/>
<path d="M3536 2080 c-42 -13 -69 -40 -55 -56 9 -11 16 -10 36 6 33 26 93 26
126 0 21 -17 27 -18 36 -6 27 32 -82 75 -143 56z"/>
<path d="M4140 2070 c0 -13 7 -20 19 -20 10 0 30 -9 44 -20 21 -17 27 -18 36
-6 9 11 6 18 -16 34 -15 10 -40 22 -55 26 -24 5 -28 3 -28 -14z"/>
<path d="M5810 2071 c0 -15 6 -21 24 -21 13 0 35 -9 49 -20 21 -17 27 -18 36
-6 9 11 6 18 -16 34 -15 11 -43 23 -60 27 -29 6 -33 4 -33 -14z"/>
<path d="M7453 2079 c-23 -7 -33 -16 -33 -29 0 -11 -5 -20 -11 -20 -5 0 -7 -5
-4 -10 4 -6 16 -3 32 10 33 26 92 26 126 0 21 -17 27 -18 36 -6 9 11 6 18 -16
34 -36 25 -88 34 -130 21z"/>
<path d="M1813 2055 c-15 -13 -23 -25 -18 -25 6 0 23 11 39 25 16 14 24 25 18
25 -6 0 -24 -11 -39 -25z"/>
<path d="M6407 2068 c-2 -7 11 -23 29 -35 27 -17 35 -19 44 -8 8 10 4 18 -19
34 -33 24 -47 26 -54 9z"/>
<path d="M8100 2071 c0 -4 9 -20 21 -35 17 -22 24 -25 36 -14 13 11 11 15 -13
35 -31 24 -44 29 -44 14z"/>
<path d="M9094 2057 c-22 -19 -24 -25 -12 -34 11 -10 20 -7 41 13 48 44 21 64
-29 21z"/>
<path d="M1005 2061 c-49 -13 -112 -49 -134 -77 -41 -52 -17 -60 37 -13 48 42
91 59 152 59 61 0 104 -17 152 -59 54 -47 78 -39 37 13 -45 57 -170 96 -244
77z"/>
<path d="M1565 2061 c-49 -13 -112 -49 -134 -77 -41 -52 -17 -60 37 -13 48 42
91 59 152 59 61 0 104 -17 156 -61 26 -22 31 -25 16 -8 -12 14 -20 32 -17 40
13 34 -141 78 -210 60z"/>
<path d="M4365 2061 c-49 -12 -112 -48 -134 -77 -41 -52 -17 -60 37 -13 47 41
91 59 147 59 39 0 46 3 43 18 -4 19 -44 25 -93 13z"/>
<path d="M4924 2061 c-51 -13 -117 -54 -133 -83 -23 -41 -6 -45 35 -8 50 43
93 60 154 60 61 0 104 -17 152 -59 54 -47 78 -39 37 13 -45 57 -170 96 -245
77z"/>
<path d="M6045 2061 c-49 -12 -112 -48 -134 -77 -41 -52 -17 -60 37 -13 47 41
91 59 147 59 39 0 46 3 43 18 -4 19 -44 25 -93 13z"/>
<path d="M6605 2061 c-48 -12 -111 -48 -134 -77 -41 -52 -17 -60 37 -13 48 42
91 59 152 59 36 0 50 4 50 14 0 25 -43 32 -105 17z"/>
<path d="M8285 2061 c-78 -20 -151 -75 -135 -100 7 -12 15 -9 42 14 18 15 47
34 65 42 48 20 132 16 178 -7 43 -22 49 -21 39 4 -14 37 -123 64 -189 47z"/>
<path d="M8852 2063 c-12 -2 -26 -12 -32 -22 -9 -17 -4 -18 58 -13 78 5 119
-8 175 -58 31 -27 38 -29 43 -16 20 52 -151 129 -244 109z"/>
<path d="M540 2046 c0 -8 15 -19 34 -26 18 -6 51 -26 74 -45 59 -51 84 -45 41
9 -22 28 -107 76 -134 76 -8 0 -15 -6 -15 -14z"/>
<path d="M7658 2035 c-60 -31 -112 -95 -77 -95 6 0 29 16 52 35 23 20 58 41
79 47 41 12 52 38 16 38 -13 -1 -44 -12 -70 -25z"/>
<path d="M2608 2029 c-35 -18 -78 -62 -78 -80 0 -17 23 -9 56 20 18 16 40 34
49 39 10 5 15 16 14 25 -4 13 -8 13 -41 -4z"/>
<path d="M3415 2020 c13 -40 95 -102 95 -71 0 16 -42 62 -72 77 -29 15 -30 15
-23 -6z"/>
<path d="M4790 2029 c0 -5 5 -7 10 -4 6 3 10 8 10 11 0 2 -4 4 -10 4 -5 0 -10
-5 -10 -11z"/>
<path d="M739 2011 c-18 -15 -21 -22 -13 -31 9 -9 17 -8 33 2 17 11 25 11 42
0 16 -10 24 -11 33 -2 13 14 -26 50 -54 50 -10 0 -28 -9 -41 -19z"/>
<path d="M1299 2011 c-18 -15 -21 -22 -13 -31 9 -9 17 -8 33 2 17 11 25 11 42
0 16 -10 24 -11 33 -2 13 14 -26 50 -54 50 -10 0 -28 -9 -41 -19z"/>
<path d="M2419 2011 c-18 -15 -21 -22 -13 -31 9 -9 17 -8 33 2 17 11 25 11 42
0 16 -10 24 -11 33 -2 13 14 -26 50 -54 50 -10 0 -28 -9 -41 -19z"/>
<path d="M3539 2011 c-18 -15 -21 -22 -13 -31 9 -9 17 -8 33 2 17 11 25 11 42
0 16 -10 24 -11 33 -2 13 14 -26 50 -54 50 -10 0 -28 -9 -41 -19z"/>
<path d="M3684 1996 c-35 -35 -43 -56 -21 -56 18 1 77 57 77 75 0 24 -19 18
-56 -19z"/>
<path d="M4140 2012 c0 -24 39 -47 54 -32 8 9 5 16 -13 31 -29 24 -41 24 -41
1z"/>
<path d="M5165 2020 c4 -6 11 -8 16 -5 14 9 11 15 -7 15 -8 0 -12 -5 -9 -10z"/>
<path d="M5219 2011 c-18 -15 -21 -22 -13 -31 9 -9 17 -8 33 2 17 11 25 11 42
0 16 -10 24 -11 33 -2 13 14 -26 50 -54 50 -10 0 -28 -9 -41 -19z"/>
<path d="M5335 2020 c4 -6 11 -8 16 -5 14 9 11 15 -7 15 -8 0 -12 -5 -9 -10z"/>
<path d="M5364 1996 c-58 -58 -38 -79 24 -25 19 17 49 37 66 45 l31 13 -43 1
c-37 0 -50 -6 -78 -34z"/>
<path d="M5626 2016 c17 -8 47 -28 66 -45 62 -54 82 -33 24 25 -28 28 -41 34
-77 34 l-44 -1 31 -13z"/>
<path d="M5725 2020 c4 -6 11 -8 16 -5 14 9 11 15 -7 15 -8 0 -12 -5 -9 -10z"/>
<path d="M5779 2011 c-18 -15 -21 -22 -13 -31 9 -9 17 -8 33 2 17 11 25 11 42
0 16 -10 24 -11 33 -2 13 14 -26 50 -54 50 -10 0 -28 -9 -41 -19z"/>
<path d="M6746 2016 c17 -8 47 -28 66 -45 62 -54 82 -33 24 25 -28 28 -41 34
-77 34 l-44 -1 31 -13z"/>
<path d="M6845 2020 c4 -6 11 -8 16 -5 14 9 11 15 -7 15 -8 0 -12 -5 -9 -10z"/>
<path d="M6899 2011 c-18 -15 -21 -22 -13 -31 9 -9 17 -8 33 2 17 11 25 11 42
0 16 -10 24 -11 33 -2 13 14 -26 50 -54 50 -10 0 -28 -9 -41 -19z"/>
<path d="M7015 2020 c4 -6 11 -8 16 -5 14 9 11 15 -7 15 -8 0 -12 -5 -9 -10z"/>
<path d="M7044 1996 c-58 -58 -38 -79 24 -25 19 17 49 37 66 45 l31 13 -43 1
c-37 0 -50 -6 -78 -34z"/>
<path d="M7306 2016 c17 -8 47 -28 66 -45 62 -54 82 -33 24 25 -28 28 -41 34
-77 34 l-44 -1 31 -13z"/>
<path d="M7459 2011 c-18 -15 -21 -22 -13 -31 9 -9 17 -8 33 2 17 11 25 11 42
0 16 -10 24 -11 33 -2 13 14 -26 50 -54 50 -10 0 -28 -9 -41 -19z"/>
<path d="M2330 1999 c0 -26 27 -59 48 -59 20 0 14 18 -18 52 l-29 33 -1 -26z"/>
<path d="M6390 2006 c0 -22 29 -41 42 -28 8 8 8 15 -2 27 -16 19 -40 20 -40 1z"/>
<path d="M996 1995 c-21 -7 -51 -26 -67 -41 -25 -24 -27 -29 -13 -37 11 -6 22
-3 37 11 35 31 63 42 107 42 44 0 72 -11 107 -42 15 -14 26 -17 38 -11 36 21
-83 94 -150 93 -11 -1 -37 -7 -59 -15z"/>
<path d="M1556 1995 c-21 -7 -51 -26 -67 -41 -25 -24 -27 -29 -13 -37 11 -6
22 -3 37 11 35 31 63 42 107 42 44 0 72 -11 107 -42 15 -14 26 -17 38 -11 36
21 -83 94 -150 93 -11 -1 -37 -7 -59 -15z"/>
<path d="M4356 1996 c-21 -8 -51 -27 -67 -42 -25 -24 -27 -29 -13 -37 11 -6
22 -3 37 11 35 31 63 42 107 42 34 0 41 3 38 18 -4 22 -51 26 -102 8z"/>
<path d="M4916 1995 c-21 -7 -51 -26 -67 -41 -25 -24 -27 -29 -13 -37 11 -6
22 -3 37 11 35 31 63 42 107 42 44 0 72 -11 107 -42 15 -14 26 -17 38 -11 36
21 -83 94 -150 93 -11 -1 -37 -7 -59 -15z"/>
<path d="M5476 1995 c-21 -7 -51 -26 -67 -41 -25 -24 -27 -29 -13 -37 11 -6
22 -3 37 11 35 31 63 42 107 42 44 0 72 -11 107 -42 15 -14 26 -17 38 -11 36
21 -83 94 -150 93 -11 -1 -37 -7 -59 -15z"/>
<path d="M6036 1995 c-21 -7 -51 -26 -67 -41 -25 -24 -27 -29 -14 -37 11 -6
25 -1 46 17 37 31 65 39 119 34 43 -4 49 2 24 26 -19 19 -56 20 -108 1z"/>
<path d="M6596 1995 c-21 -7 -51 -26 -67 -41 -25 -24 -27 -29 -13 -37 11 -6
22 -3 37 11 35 31 63 42 107 42 44 0 72 -11 107 -42 15 -14 26 -17 38 -11 36
21 -83 94 -150 93 -11 -1 -37 -7 -59 -15z"/>
<path d="M7156 1995 c-21 -7 -51 -26 -67 -41 -25 -24 -27 -29 -13 -37 11 -6
22 -3 37 11 35 31 63 42 107 42 44 0 72 -11 107 -42 15 -14 26 -17 38 -11 36
21 -83 94 -150 93 -11 -1 -37 -7 -59 -15z"/>
<path d="M7716 1995 c-21 -7 -51 -26 -67 -41 -25 -24 -27 -29 -14 -37 11 -6
25 -1 46 17 17 14 41 29 55 32 15 4 24 13 24 25 0 10 -1 19 -2 19 -2 -1 -20
-7 -42 -15z"/>
<path d="M8276 1995 c-21 -7 -51 -26 -67 -41 -25 -24 -27 -29 -13 -37 11 -6
22 -3 37 11 35 31 63 42 107 42 44 0 72 -11 107 -42 15 -14 26 -17 38 -11 36
21 -83 94 -150 93 -11 -1 -37 -7 -59 -15z"/>
<path d="M8837 1995 c-43 -15 -40 -13 -56 -42 -18 -36 -13 -48 12 -26 35 32
62 43 107 43 44 0 72 -11 107 -42 15 -14 26 -17 38 -11 36 21 -83 94 -150 93
-11 -1 -37 -7 -58 -15z"/>
<path d="M540 1985 c0 -8 10 -20 23 -26 12 -6 31 -20 43 -31 13 -11 28 -16 38
-12 15 6 15 9 -6 31 -24 26 -69 53 -88 53 -5 0 -10 -7 -10 -15z"/>
<path d="M2606 1951 c-24 -25 -25 -29 -10 -35 21 -8 29 0 38 37 8 34 6 34 -28
-2z"/>
<path d="M765 1960 c-3 -5 3 -10 15 -10 12 0 18 5 15 10 -3 6 -10 10 -15 10
-5 0 -12 -4 -15 -10z"/>
<path d="M1325 1960 c-3 -5 3 -10 15 -10 12 0 18 5 15 10 -3 6 -10 10 -15 10
-5 0 -12 -4 -15 -10z"/>
<path d="M2445 1960 c-3 -5 3 -10 15 -10 12 0 18 5 15 10 -3 6 -10 10 -15 10
-5 0 -12 -4 -15 -10z"/>
<path d="M3565 1960 c-3 -5 3 -10 15 -10 12 0 18 5 15 10 -3 6 -10 10 -15 10
-5 0 -12 -4 -15 -10z"/>
<path d="M4140 1960 c0 -5 5 -10 11 -10 5 0 7 5 4 10 -3 6 -8 10 -11 10 -2 0
-4 -4 -4 -10z"/>
<path d="M5245 1960 c-3 -5 3 -10 15 -10 12 0 18 5 15 10 -3 6 -10 10 -15 10
-5 0 -12 -4 -15 -10z"/>
<path d="M5805 1960 c-3 -5 3 -10 15 -10 12 0 18 5 15 10 -3 6 -10 10 -15 10
-5 0 -12 -4 -15 -10z"/>
<path d="M6925 1960 c-3 -5 3 -10 15 -10 12 0 18 5 15 10 -3 6 -10 10 -15 10
-5 0 -12 -4 -15 -10z"/>
<path d="M7485 1960 c-3 -5 3 -10 15 -10 12 0 18 5 15 10 -3 6 -10 10 -15 10
-5 0 -12 -4 -15 -10z"/>
<path d="M3717 1942 c-17 -18 -17 -20 -1 -26 22 -8 26 -3 22 24 -3 22 -3 22
-21 2z"/>
<path d="M1016 1940 c-42 -13 -69 -40 -55 -56 9 -11 16 -10 36 6 33 26 93 26
126 0 21 -17 27 -18 36 -6 27 32 -82 75 -143 56z"/>
<path d="M1576 1940 c-42 -13 -69 -40 -55 -56 9 -11 16 -10 36 6 33 26 93 26
126 0 21 -17 27 -18 36 -6 27 32 -82 75 -143 56z"/>
<path d="M3430 1930 c0 -13 5 -18 15 -14 12 5 13 10 4 20 -15 19 -19 18 -19
-6z"/>
<path d="M4376 1940 c-42 -13 -69 -40 -55 -56 9 -11 16 -10 36 6 16 12 41 20
64 20 27 0 39 4 39 14 0 25 -33 31 -84 16z"/>
<path d="M4936 1940 c-42 -13 -69 -40 -55 -56 9 -11 16 -10 36 6 33 26 93 26
126 0 21 -17 27 -18 36 -6 27 32 -82 75 -143 56z"/>
<path d="M5496 1940 c-42 -13 -69 -40 -55 -56 9 -11 16 -10 36 6 33 26 93 26
126 0 21 -17 27 -18 36 -6 27 32 -82 75 -143 56z"/>
<path d="M6056 1940 c-42 -13 -69 -40 -55 -56 9 -11 16 -9 39 8 23 16 38 20
74 16 39 -5 46 -3 46 12 0 12 -11 20 -31 24 -36 7 -35 7 -73 -4z"/>
<path d="M6616 1940 c-42 -13 -69 -40 -55 -56 9 -11 16 -10 36 6 33 26 93 26
126 0 21 -17 27 -18 36 -6 27 32 -82 75 -143 56z"/>
<path d="M7176 1940 c-42 -13 -69 -40 -55 -56 9 -11 16 -10 36 6 33 26 93 26
126 0 21 -17 27 -18 36 -6 27 32 -82 75 -143 56z"/>
<path d="M8296 1940 c-42 -13 -69 -40 -55 -56 9 -11 16 -10 36 6 33 26 93 26
126 0 21 -17 27 -18 36 -6 27 32 -82 75 -143 56z"/>
<path d="M8856 1940 c-42 -13 -69 -40 -55 -56 9 -11 16 -10 36 6 33 26 93 26
126 0 21 -17 27 -18 36 -6 27 32 -82 75 -143 56z"/>
<path d="M540 1923 c0 -10 11 -26 24 -35 20 -15 26 -15 35 -4 9 11 6 19 -18
35 -35 26 -41 26 -41 4z"/>
<path d="M7696 1919 c-20 -16 -24 -24 -16 -34 9 -11 17 -9 45 8 19 12 34 28
35 35 0 19 -34 14 -64 -9z"/>
<path d="M725 1921 c-67 -17 -155 -78 -155 -108 0 -21 20 -15 58 18 74 66 172
79 256 34 56 -29 96 -34 75 -9 -38 46 -167 82 -234 65z"/>
<path d="M1285 1921 c-41 -11 -108 -46 -124 -65 -22 -26 20 -20 76 10 41 22
58 25 114 22 58 -3 74 -9 129 -46 69 -46 85 -47 54 -4 -45 60 -173 103 -249
83z"/>
<path d="M2415 1924 c-52 -13 -95 -38 -95 -56 0 -11 3 -18 8 -16 63 33 91 40
149 36 51 -3 71 -10 108 -36 l45 -32 0 25 c0 19 -10 30 -49 49 -48 25 -128 39
-166 30z"/>
<path d="M3525 1921 c-53 -14 -95 -40 -95 -61 0 -18 3 -18 48 6 65 36 160 31
221 -9 l43 -28 -4 23 c-6 47 -136 89 -213 69z"/>
<path d="M4140 1910 c0 -15 6 -20 25 -20 37 0 86 -23 127 -59 54 -47 78 -39
37 13 -25 31 -99 70 -151 80 -34 6 -38 5 -38 -14z"/>
<path d="M5205 1921 c-67 -17 -155 -78 -155 -108 0 -21 20 -15 58 18 48 42 91
59 152 59 61 0 104 -17 152 -59 54 -47 78 -39 37 13 -45 57 -170 96 -244 77z"/>
<path d="M5765 1921 c-67 -17 -155 -78 -155 -108 0 -21 20 -15 58 18 48 42 91
59 152 59 61 0 104 -17 152 -59 54 -47 78 -39 37 13 -45 57 -170 96 -244 77z"/>
<path d="M6386 1914 c-9 -23 -8 -24 19 -24 37 0 86 -23 127 -59 35 -30 58 -39
58 -22 0 51 -188 148 -204 105z"/>
<path d="M6885 1921 c-67 -17 -155 -78 -155 -108 0 -21 20 -15 58 18 48 42 91
59 152 59 61 0 104 -17 152 -59 54 -47 78 -39 37 13 -45 57 -170 96 -244 77z"/>
<path d="M7445 1921 c-67 -17 -155 -78 -155 -108 0 -21 20 -15 58 18 48 42 91
59 152 59 61 0 104 -17 152 -59 54 -47 78 -39 37 13 -45 57 -170 96 -244 77z"/>
<path d="M1785 1898 c-48 -24 -95 -67 -95 -85 0 -22 20 -15 62 22 23 19 56 39
75 46 28 9 32 13 22 25 -14 18 -16 17 -64 -8z"/>
<path d="M4780 1897 c0 -7 21 -29 47 -48 25 -19 52 -38 59 -44 23 -17 28 5 7
33 -18 24 -87 71 -105 72 -5 0 -8 -6 -8 -13z"/>
<path d="M8485 1888 c-32 -17 -75 -61 -75 -75 0 -21 20 -15 56 16 18 16 40 34
50 39 9 5 14 14 10 21 -9 14 -15 14 -41 -1z"/>
<path d="M9045 1888 c-54 -29 -95 -88 -62 -88 16 0 72 58 80 83 7 20 8 20 -18
5z"/>
<path d="M1022 1874 c-35 -24 -27 -31 38 -31 33 0 60 4 60 8 0 12 -42 39 -60
39 -9 0 -26 -7 -38 -16z"/>
<path d="M1579 1871 c-18 -15 -21 -22 -13 -31 9 -9 17 -8 33 2 17 11 25 11 42
0 16 -10 24 -11 33 -2 13 14 -26 50 -54 50 -10 0 -28 -9 -41 -19z"/>
<path d="M4379 1871 c-18 -15 -21 -22 -13 -31 9 -9 17 -8 33 2 17 10 25 10 41
0 18 -11 20 -10 20 12 0 39 -43 48 -81 17z"/>
<path d="M4939 1871 c-18 -15 -21 -22 -13 -31 9 -9 17 -8 33 2 17 11 25 11 42
0 16 -10 24 -11 33 -2 13 14 -26 50 -54 50 -10 0 -28 -9 -41 -19z"/>
<path d="M5499 1871 c-18 -15 -21 -22 -13 -31 9 -9 17 -8 33 2 17 11 25 11 42
0 16 -10 24 -11 33 -2 13 14 -26 50 -54 50 -10 0 -28 -9 -41 -19z"/>
<path d="M6059 1871 c-18 -15 -21 -22 -13 -31 9 -9 17 -8 33 2 16 10 25 10 40
1 16 -10 20 -9 26 5 7 18 -18 42 -46 42 -9 0 -27 -9 -40 -19z"/>
<path d="M6619 1871 c-18 -15 -21 -22 -13 -31 9 -9 17 -8 33 2 17 11 25 11 42
0 16 -10 24 -11 33 -2 13 14 -26 50 -54 50 -10 0 -28 -9 -41 -19z"/>
<path d="M7179 1871 c-18 -15 -21 -22 -13 -31 9 -9 17 -8 33 2 17 11 25 11 42
0 16 -10 24 -11 33 -2 13 14 -26 50 -54 50 -10 0 -28 -9 -41 -19z"/>
<path d="M8191 1868 c17 -34 51 -68 66 -68 22 0 15 20 -21 56 -40 40 -63 46
-45 12z"/>
<path d="M8299 1871 c-18 -15 -21 -22 -13 -31 9 -9 17 -8 33 2 17 11 25 11 42
0 16 -10 24 -11 33 -2 13 14 -26 50 -54 50 -10 0 -28 -9 -41 -19z"/>
<path d="M8746 1875 c-3 -10 7 -27 27 -45 51 -47 76 -37 36 14 -29 37 -55 50
-63 31z"/>
<path d="M8859 1871 c-18 -15 -21 -22 -13 -31 9 -9 17 -8 33 2 17 11 25 11 42
0 16 -10 24 -11 33 -2 13 14 -26 50 -54 50 -10 0 -28 -9 -41 -19z"/>
<path d="M7730 1865 c-6 -8 -8 -20 -4 -26 5 -9 11 -7 21 6 23 33 9 51 -17 20z"/>
<path d="M540 1850 c0 -19 3 -21 12 -12 9 9 9 15 0 24 -9 9 -12 7 -12 -12z"/>
<path d="M716 1856 c-21 -8 -51 -27 -67 -42 -25 -24 -27 -29 -14 -37 11 -6 25
-1 46 17 17 14 41 29 55 32 26 7 90 1 115 -10 25 -11 33 21 9 34 -34 18 -103
21 -144 6z"/>
<path d="M1283 1859 c-18 -5 -33 -12 -33 -14 0 -3 42 -5 93 -5 65 1 87 3 75
10 -26 15 -99 20 -135 9z"/>
<path d="M1836 1855 c-21 -7 -51 -26 -67 -41 -25 -24 -27 -29 -14 -37 11 -6
25 -1 46 17 17 14 43 29 57 32 15 3 31 7 35 7 4 1 2 10 -5 19 -12 15 -17 15
-52 3z"/>
<path d="M2397 1856 c-51 -19 -76 -42 -70 -67 6 -20 6 -20 27 -1 34 31 62 42
106 42 44 0 72 -11 107 -42 15 -14 26 -17 38 -11 36 21 -83 94 -150 93 -11 -1
-37 -7 -58 -14z"/>
<path d="M3516 1855 c-21 -7 -51 -26 -67 -41 -25 -24 -27 -29 -13 -37 11 -6
22 -3 37 11 35 31 63 42 107 42 44 0 72 -11 107 -42 15 -14 26 -17 38 -11 36
21 -83 94 -150 93 -11 -1 -37 -7 -59 -15z"/>
<path d="M4140 1851 c0 -15 6 -21 21 -21 24 0 56 -16 85 -42 13 -11 28 -16 38
-12 34 13 -42 74 -111 89 -29 6 -33 4 -33 -14z"/>
<path d="M5196 1855 c-21 -7 -51 -26 -67 -41 -25 -24 -27 -29 -13 -37 11 -6
22 -3 37 11 35 31 63 42 107 42 44 0 72 -11 107 -42 15 -14 26 -17 38 -11 36
21 -83 94 -150 93 -11 -1 -37 -7 -59 -15z"/>
<path d="M5756 1855 c-21 -7 -51 -26 -67 -41 -25 -24 -27 -29 -13 -37 11 -6
22 -3 37 11 35 31 63 42 107 42 44 0 72 -11 107 -42 15 -14 26 -17 38 -11 36
21 -83 94 -150 93 -11 -1 -37 -7 -59 -15z"/>
<path d="M6380 1851 c0 -15 6 -21 21 -21 24 0 56 -16 85 -42 13 -11 28 -16 38
-12 34 13 -42 74 -111 89 -29 6 -33 4 -33 -14z"/>
<path d="M6876 1855 c-21 -7 -51 -26 -67 -41 -25 -24 -27 -29 -13 -37 11 -6
22 -3 37 11 35 31 63 42 107 42 44 0 72 -11 107 -42 15 -14 26 -17 38 -11 36
21 -83 94 -150 93 -11 -1 -37 -7 -59 -15z"/>
<path d="M7436 1855 c-21 -7 -51 -26 -67 -41 -25 -24 -27 -29 -13 -37 11 -6
22 -3 37 11 35 31 63 42 107 42 44 0 72 -11 107 -42 15 -14 26 -17 38 -11 36
21 -83 94 -150 93 -11 -1 -37 -7 -59 -15z"/>
<path d="M4780 1832 c0 -26 43 -64 64 -56 15 6 15 9 -6 31 -35 38 -58 48 -58
25z"/>
<path d="M8495 1818 c-31 -26 -34 -33 -21 -40 20 -11 75 28 75 55 1 25 -14 21
-54 -15z"/>
<path d="M1605 1820 c-3 -5 3 -10 15 -10 12 0 18 5 15 10 -3 6 -10 10 -15 10
-5 0 -12 -4 -15 -10z"/>
<path d="M4405 1820 c-3 -5 3 -10 15 -10 12 0 18 5 15 10 -3 6 -10 10 -15 10
-5 0 -12 -4 -15 -10z"/>
<path d="M4965 1820 c-3 -5 3 -10 15 -10 12 0 18 5 15 10 -3 6 -10 10 -15 10
-5 0 -12 -4 -15 -10z"/>
<path d="M5525 1820 c-3 -5 3 -10 15 -10 12 0 18 5 15 10 -3 6 -10 10 -15 10
-5 0 -12 -4 -15 -10z"/>
<path d="M6085 1820 c-3 -5 3 -10 15 -10 12 0 18 5 15 10 -3 6 -10 10 -15 10
-5 0 -12 -4 -15 -10z"/>
<path d="M6645 1820 c-3 -5 3 -10 15 -10 12 0 18 5 15 10 -3 6 -10 10 -15 10
-5 0 -12 -4 -15 -10z"/>
<path d="M7205 1820 c-3 -5 3 -10 15 -10 12 0 18 5 15 10 -3 6 -10 10 -15 10
-5 0 -12 -4 -15 -10z"/>
<path d="M8325 1820 c-3 -5 3 -10 15 -10 12 0 18 5 15 10 -3 6 -10 10 -15 10
-5 0 -12 -4 -15 -10z"/>
<path d="M8720 1811 c0 -25 23 -43 44 -35 15 6 15 9 -5 30 -27 29 -39 30 -39
5z"/>
<path d="M8885 1820 c-3 -5 3 -10 15 -10 12 0 18 5 15 10 -3 6 -10 10 -15 10
-5 0 -12 -4 -15 -10z"/>
<path d="M736 1800 c-42 -13 -69 -40 -55 -56 9 -11 16 -10 36 6 34 26 93 26
127 -1 l26 -20 0 23 c0 40 -74 67 -134 48z"/>
<path d="M1856 1800 c-42 -13 -69 -40 -55 -56 9 -11 16 -10 36 6 14 11 39 20
55 20 23 0 29 4 26 17 -4 21 -22 25 -62 13z"/>
<path d="M2416 1800 c-42 -13 -69 -40 -55 -56 9 -11 16 -10 36 6 33 26 93 26
126 0 21 -17 27 -18 36 -6 27 32 -82 75 -143 56z"/>
<path d="M3536 1800 c-42 -13 -69 -40 -55 -56 9 -11 16 -10 36 6 33 26 93 26
126 0 21 -17 27 -18 36 -6 27 32 -82 75 -143 56z"/>
<path d="M4140 1790 c0 -13 7 -20 19 -20 10 0 30 -9 44 -20 21 -17 27 -18 36
-6 9 11 6 18 -16 34 -15 10 -40 22 -55 26 -24 5 -28 3 -28 -14z"/>
<path d="M5214 1799 c-17 -5 -36 -15 -42 -22 -9 -11 7 -13 88 -13 55 0 100 1
100 2 0 1 -11 9 -24 17 -31 21 -84 28 -122 16z"/>
<path d="M5774 1799 c-17 -5 -36 -15 -42 -22 -9 -11 7 -13 88 -13 55 0 100 1
100 2 0 1 -11 9 -24 17 -31 21 -84 28 -122 16z"/>
<path d="M6390 1789 c0 -10 6 -19 14 -19 7 0 25 -9 39 -20 21 -17 27 -18 36
-6 9 11 6 18 -16 34 -43 29 -73 34 -73 11z"/>
<path d="M6894 1799 c-17 -5 -36 -15 -42 -22 -9 -11 7 -13 88 -13 55 0 100 1
100 2 0 1 -11 9 -24 17 -31 21 -84 28 -122 16z"/>
<path d="M7454 1799 c-17 -5 -36 -15 -42 -22 -9 -11 7 -13 88 -13 55 0 100 1
100 2 0 1 -11 9 -24 17 -31 21 -84 28 -122 16z"/>
<path d="M8536 1778 c-23 -19 -26 -26 -15 -35 20 -17 64 20 51 43 -8 14 -12
13 -36 -8z"/>
<path d="M1588 1785 c-16 -17 6 -35 43 -35 50 0 96 -19 141 -59 54 -47 78 -39
37 13 -12 15 -42 38 -69 51 -48 24 -139 42 -152 30z"/>
<path d="M4365 1781 c-49 -12 -112 -48 -134 -77 -41 -52 -17 -60 37 -13 47 41
91 59 147 59 39 0 46 3 43 18 -4 19 -44 25 -93 13z"/>
<path d="M4925 1781 c-41 -11 -108 -46 -124 -65 -7 -9 -10 -23 -7 -32 5 -13
11 -12 39 12 17 15 46 33 64 41 42 17 125 17 168 -1 32 -14 35 -14 35 3 0 10
-11 23 -25 29 -34 15 -114 22 -150 13z"/>
<path d="M5482 1781 c-61 -16 -46 -21 59 -21 67 1 99 4 88 10 -23 14 -110 20
-147 11z"/>
<path d="M6605 1781 c-49 -13 -112 -49 -134 -77 -41 -52 -17 -60 37 -13 46 41
90 59 149 60 26 1 62 4 78 8 24 5 26 8 13 13 -30 12 -112 17 -143 9z"/>
<path d="M7162 1781 c-61 -16 -46 -21 59 -21 67 1 99 4 88 10 -23 14 -110 20
-147 11z"/>
<path d="M8282 1781 c-38 -10 -46 -16 -38 -29 3 -5 36 -7 73 -5 78 6 120 -7
175 -56 54 -47 78 -39 37 13 -45 58 -170 96 -247 77z"/>
<path d="M8845 1781 c-49 -13 -112 -49 -134 -77 -41 -52 -17 -60 37 -13 20 17
50 38 68 45 39 16 121 18 158 4 22 -8 26 -7 26 9 0 10 -7 21 -15 25 -28 10
-110 15 -140 7z"/>
<path d="M540 1766 c0 -8 15 -19 34 -26 18 -6 51 -26 74 -45 59 -51 84 -45 41
9 -22 28 -107 76 -134 76 -8 0 -15 -6 -15 -14z"/>
<path d="M4780 1761 c0 -11 4 -21 9 -21 18 0 21 18 6 30 -13 10 -15 9 -15 -9z"/>
<path d="M6028 1773 c6 -2 18 -2 25 0 6 3 1 5 -13 5 -14 0 -19 -2 -12 -5z"/>
<path d="M8696 1764 c-9 -23 8 -38 23 -21 9 11 8 17 -3 26 -11 9 -15 8 -20 -5z"/>
<path d="M2594 1741 c-46 -28 -81 -81 -53 -81 16 0 99 73 99 87 0 18 -9 16
-46 -6z"/>
<path d="M739 1731 c-18 -15 -21 -22 -13 -31 9 -9 17 -8 33 2 17 11 25 11 42
0 16 -10 24 -11 33 -2 13 14 -26 50 -54 50 -10 0 -28 -9 -41 -19z"/>
<path d="M1859 1731 c-18 -15 -21 -22 -13 -31 9 -9 17 -8 33 2 17 10 25 10 41
0 18 -11 20 -10 20 12 0 39 -43 48 -81 17z"/>
<path d="M2419 1731 c-18 -15 -21 -22 -13 -31 9 -9 17 -8 33 2 17 11 25 11 42
0 16 -10 24 -11 33 -2 13 14 -26 50 -54 50 -10 0 -28 -9 -41 -19z"/>
<path d="M3417 1737 c-5 -13 63 -77 82 -77 20 0 11 22 -23 56 -36 36 -51 42
-59 21z"/>
<path d="M3539 1731 c-18 -15 -21 -22 -13 -31 9 -9 17 -8 33 2 17 11 25 11 42
0 16 -10 24 -11 33 -2 13 14 -26 50 -54 50 -10 0 -28 -9 -41 -19z"/>
<path d="M3684 1716 c-35 -35 -43 -56 -21 -56 18 1 77 57 77 75 0 24 -19 18
-56 -19z"/>
<path d="M4140 1732 c0 -24 39 -47 54 -32 8 9 5 16 -13 31 -29 24 -41 24 -41
1z"/>
<path d="M6390 1732 c0 -26 27 -49 42 -34 12 12 4 28 -23 42 -16 9 -19 7 -19
-8z"/>
<path d="M2330 1725 c0 -26 27 -65 46 -65 22 0 17 16 -16 52 -26 29 -29 30
-30 13z"/>
<path d="M8570 1724 c-9 -10 -10 -18 -2 -26 12 -12 32 -2 32 17 0 21 -16 26
-30 9z"/>
<path d="M1617 1710 c3 -11 14 -20 25 -20 24 0 56 -16 85 -42 15 -14 26 -17
38 -11 33 19 -80 93 -142 93 -6 0 -9 -9 -6 -20z"/>
<path d="M4356 1716 c-21 -8 -51 -27 -67 -42 -25 -24 -27 -29 -13 -37 11 -6
22 -3 37 11 35 31 63 42 107 42 34 0 41 3 38 18 -4 22 -51 26 -102 8z"/>
<path d="M4916 1715 c-21 -7 -51 -26 -67 -41 -25 -24 -27 -29 -13 -37 11 -6
22 -3 37 11 35 31 63 42 107 42 45 0 72 -11 108 -43 18 -17 25 -18 35 -8 26
26 -81 92 -148 91 -11 -1 -37 -7 -59 -15z"/>
<path d="M6596 1715 c-21 -7 -51 -26 -67 -41 -25 -24 -27 -29 -14 -37 11 -6
25 -1 46 17 37 31 65 39 119 34 43 -4 49 2 24 26 -19 19 -56 20 -108 1z"/>
<path d="M8292 1722 c-13 -4 -23 -10 -23 -14 1 -5 1 -12 1 -17 0 -5 20 -6 44
-4 58 7 87 -1 125 -33 22 -18 35 -23 46 -16 14 7 11 13 -19 40 -50 44 -115 60
-174 44z"/>
<path d="M8836 1715 c-21 -7 -51 -26 -67 -41 -25 -24 -27 -29 -13 -37 11 -6
22 -3 37 11 38 34 67 44 125 40 45 -2 57 0 57 12 0 28 -78 37 -139 15z"/>
<path d="M540 1705 c0 -8 10 -20 23 -26 12 -6 31 -20 43 -31 13 -11 28 -16 38
-12 15 6 15 9 -6 31 -24 26 -69 53 -88 53 -5 0 -10 -7 -10 -15z"/>
<path d="M857 1686 c-4 -10 -5 -21 -2 -24 9 -9 17 6 13 25 -3 17 -4 17 -11 -1z"/>
<path d="M2606 1671 c-24 -25 -25 -29 -10 -35 19 -7 64 28 64 51 0 22 -25 15
-54 -16z"/>
<path d="M3397 1681 c-6 -26 25 -56 47 -44 14 8 12 13 -13 37 -27 26 -29 26
-34 7z"/>
<path d="M765 1680 c-3 -5 3 -10 15 -10 12 0 18 5 15 10 -3 6 -10 10 -15 10
-5 0 -12 -4 -15 -10z"/>
<path d="M1885 1680 c-3 -5 3 -10 15 -10 12 0 18 5 15 10 -3 6 -10 10 -15 10
-5 0 -12 -4 -15 -10z"/>
<path d="M2445 1680 c-3 -5 3 -10 15 -10 12 0 18 5 15 10 -3 6 -10 10 -15 10
-5 0 -12 -4 -15 -10z"/>
<path d="M3565 1680 c-3 -5 3 -10 15 -10 12 0 18 5 15 10 -3 6 -10 10 -15 10
-5 0 -12 -4 -15 -10z"/>
<path d="M4140 1680 c0 -5 5 -10 11 -10 5 0 7 5 4 10 -3 6 -8 10 -11 10 -2 0
-4 -4 -4 -10z"/>
<path d="M3717 1662 c-17 -18 -17 -20 -1 -26 22 -8 26 -3 22 24 -3 22 -3 22
-21 2z"/>
<path d="M1630 1649 c0 -10 6 -19 14 -19 7 0 25 -9 39 -20 21 -17 27 -18 36
-6 9 11 6 18 -16 34 -43 29 -73 34 -73 11z"/>
<path d="M4376 1660 c-42 -13 -69 -40 -55 -56 9 -11 16 -10 36 6 16 12 41 20
64 20 27 0 39 4 39 14 0 25 -33 31 -84 16z"/>
<path d="M4936 1660 c-42 -13 -69 -40 -55 -56 9 -11 16 -10 36 6 33 26 93 26
126 0 21 -17 27 -18 36 -6 27 32 -82 75 -143 56z"/>
<path d="M6616 1660 c-42 -13 -69 -40 -55 -56 9 -11 16 -10 36 6 34 26 93 26
126 0 33 -26 44 -9 15 24 -26 28 -78 40 -122 26z"/>
<path d="M8307 1663 c-32 -9 -12 -28 36 -33 25 -3 54 -14 65 -23 16 -15 21
-15 31 -3 24 28 -78 74 -132 59z"/>
<path d="M8856 1660 c-42 -13 -69 -40 -55 -56 9 -11 16 -9 39 8 20 15 39 19
68 16 32 -3 42 0 45 13 3 12 -4 19 -25 23 -35 7 -34 7 -72 -4z"/>
<path d="M540 1643 c0 -10 11 -26 24 -35 20 -15 26 -15 35 -4 9 11 6 19 -18
35 -35 26 -41 26 -41 4z"/>
<path d="M725 1641 c-67 -17 -155 -78 -155 -108 0 -21 20 -15 58 18 55 49 97
62 174 57 52 -4 68 -2 68 8 0 7 -4 15 -8 18 -16 10 -108 15 -137 7z"/>
<path d="M1845 1641 c-66 -16 -155 -78 -155 -108 0 -21 20 -15 58 18 48 42 91
59 152 59 36 0 50 4 50 14 0 25 -43 32 -105 17z"/>
<path d="M2425 1646 c-5 -3 -22 -7 -37 -10 -19 -4 -28 -13 -28 -26 0 -17 4
-18 26 -10 37 14 119 12 158 -4 18 -7 48 -28 68 -45 54 -47 78 -39 37 13 -29
36 -106 74 -165 80 -27 3 -53 4 -59 2z"/>
<path d="M2647 1632 c-13 -14 -14 -21 -5 -30 15 -15 49 13 41 34 -7 19 -17 18
-36 -4z"/>
<path d="M3525 1641 c-67 -17 -155 -78 -155 -108 0 -22 20 -15 62 22 53 44 96
58 168 53 42 -3 70 -12 100 -32 l42 -27 -4 23 c-6 47 -136 89 -213 69z"/>
<path d="M4140 1630 c0 -15 6 -20 25 -20 37 0 86 -23 127 -59 54 -47 78 -39
37 13 -25 31 -99 70 -151 80 -34 6 -38 5 -38 -14z"/>
<path d="M8565 1641 c-67 -17 -155 -78 -155 -108 0 -21 20 -15 58 18 48 42 91
59 152 59 61 0 104 -17 152 -59 54 -47 78 -39 37 13 -44 56 -170 96 -244 77z"/>
<path d="M3374 1625 c-9 -23 10 -40 25 -22 9 11 8 17 -4 27 -12 10 -16 9 -21
-5z"/>
<path d="M6410 1630 c0 -6 20 -19 44 -29 23 -11 59 -33 78 -50 54 -48 78 -39
37 13 -37 47 -159 97 -159 66z"/>
<path d="M4818 1598 c10 -38 92 -100 92 -69 0 16 -42 61 -70 76 -27 14 -28 14
-22 -7z"/>
<path d="M5125 1608 c-53 -28 -96 -89 -62 -88 22 1 102 79 92 89 -7 6 -17 6
-30 -1z"/>
<path d="M4379 1591 c-18 -15 -21 -22 -13 -31 9 -9 17 -8 33 2 17 10 25 10 41
0 18 -11 20 -10 20 12 0 39 -43 48 -81 17z"/>
<path d="M4939 1591 c-18 -15 -21 -22 -13 -31 9 -9 17 -8 33 2 17 11 25 11 42
0 16 -10 24 -11 33 -2 13 14 -26 50 -54 50 -10 0 -28 -9 -41 -19z"/>
<path d="M6619 1591 c-18 -15 -21 -22 -13 -31 9 -9 17 -8 33 2 17 11 25 11 42
0 16 -10 24 -11 33 -2 13 14 -26 50 -54 50 -10 0 -28 -9 -41 -19z"/>
<path d="M8317 1604 c-10 -11 5 -34 22 -34 9 0 22 -5 29 -12 9 -9 15 -9 25 1
10 10 7 16 -12 32 -23 19 -52 25 -64 13z"/>
<path d="M8859 1591 c-29 -24 -15 -50 17 -33 11 6 27 13 37 16 10 3 17 12 15
19 -7 20 -43 19 -69 -2z"/>
<path d="M1630 1586 c0 -22 29 -41 42 -28 8 8 8 15 -2 27 -16 19 -40 20 -40 1z"/>
<path d="M540 1570 c0 -19 3 -21 12 -12 9 9 9 15 0 24 -9 9 -12 7 -12 -12z"/>
<path d="M716 1575 c-21 -7 -51 -26 -67 -41 -25 -24 -27 -29 -14 -37 11 -6 25
-1 46 17 17 14 41 29 55 32 27 7 90 1 117 -10 13 -6 17 -3 17 12 0 16 -10 24
-37 31 -49 14 -69 13 -117 -4z"/>
<path d="M1836 1575 c-21 -7 -51 -26 -67 -41 -25 -24 -27 -29 -14 -37 11 -6
25 -1 46 17 37 31 65 39 119 34 32 -3 40 0 40 13 0 30 -61 37 -124 14z"/>
<path d="M2403 1579 c-22 -6 -30 -14 -27 -24 4 -10 17 -12 54 -8 61 7 91 0
129 -33 22 -18 35 -23 46 -16 14 7 11 13 -19 40 -53 47 -115 60 -183 41z"/>
<path d="M2684 1579 c-10 -17 13 -36 27 -22 12 12 4 33 -11 33 -5 0 -12 -5
-16 -11z"/>
<path d="M3516 1575 c-21 -7 -51 -26 -67 -41 -25 -24 -27 -29 -13 -37 11 -6
22 -3 37 11 35 31 63 42 107 42 44 0 72 -11 107 -42 15 -14 26 -17 38 -11 36
21 -83 94 -150 93 -11 -1 -37 -7 -59 -15z"/>
<path d="M4140 1571 c0 -15 6 -21 21 -21 24 0 56 -16 85 -42 13 -11 28 -16 38
-12 34 13 -42 74 -111 89 -29 6 -33 4 -33 -14z"/>
<path d="M8556 1575 c-21 -7 -51 -26 -67 -41 -25 -24 -27 -29 -13 -37 11 -6
22 -3 37 11 35 31 63 42 107 42 44 0 72 -11 107 -42 15 -14 26 -17 38 -11 36
21 -83 94 -150 93 -11 -1 -37 -7 -59 -15z"/>
<path d="M3336 1564 c-4 -10 -1 -14 6 -12 15 5 23 28 10 28 -5 0 -13 -7 -16
-16z"/>
<path d="M6430 1572 c0 -25 73 -84 94 -76 15 6 15 9 -6 31 -21 22 -68 53 -83
53 -3 0 -5 -4 -5 -8z"/>
<path d="M6747 1562 c-20 -22 -22 -42 -4 -42 19 0 50 37 42 49 -9 16 -20 14
-38 -7z"/>
<path d="M5135 1539 c-31 -27 -34 -34 -20 -41 11 -7 25 -2 48 18 18 15 32 32
32 37 0 22 -25 16 -60 -14z"/>
<path d="M2725 1540 c-3 -5 1 -10 10 -10 9 0 13 5 10 10 -3 6 -8 10 -10 10 -2
0 -7 -4 -10 -10z"/>
<path d="M4405 1540 c-3 -5 3 -10 15 -10 12 0 18 5 15 10 -3 6 -10 10 -15 10
-5 0 -12 -4 -15 -10z"/>
<path d="M4965 1540 c-3 -5 3 -10 15 -10 12 0 18 5 15 10 -3 6 -10 10 -15 10
-5 0 -12 -4 -15 -10z"/>
<path d="M6645 1540 c-3 -5 3 -10 15 -10 12 0 18 5 15 10 -3 6 -10 10 -15 10
-5 0 -12 -4 -15 -10z"/>
<path d="M8340 1540 c0 -5 5 -10 11 -10 5 0 7 5 4 10 -3 6 -8 10 -11 10 -2 0
-4 -4 -4 -10z"/>
<path d="M8885 1540 c-3 -5 1 -10 9 -10 9 0 16 5 16 10 0 6 -4 10 -9 10 -6 0
-13 -4 -16 -10z"/>
<path d="M6796 1521 c-16 -17 -16 -19 0 -25 10 -4 24 -1 31 7 12 12 12 15 0
25 -11 9 -18 8 -31 -7z"/>
<path d="M736 1520 c-42 -13 -69 -40 -55 -56 9 -11 16 -10 36 6 34 26 93 26
127 -1 l26 -20 0 23 c0 40 -74 67 -134 48z"/>
<path d="M1856 1520 c-42 -13 -69 -40 -55 -56 9 -11 16 -10 36 6 31 24 90 26
120 5 20 -14 21 -14 14 12 -10 37 -56 50 -115 33z"/>
<path d="M2422 1523 c-15 -3 -22 -10 -20 -21 2 -13 13 -16 48 -14 34 3 52 -2
72 -17 22 -17 28 -18 37 -7 25 29 -75 72 -137 59z"/>
<path d="M3536 1520 c-42 -13 -69 -40 -55 -56 9 -11 16 -10 36 6 33 26 93 26
126 0 21 -17 27 -18 36 -6 27 32 -82 75 -143 56z"/>
<path d="M4140 1510 c0 -13 7 -20 19 -20 10 0 30 -9 44 -20 21 -17 27 -18 36
-6 9 11 6 18 -16 34 -15 10 -40 22 -55 26 -24 5 -28 3 -28 -14z"/>
<path d="M5926 1510 c13 -13 27 -18 37 -14 25 9 2 34 -31 34 l-26 0 20 -20z"/>
<path d="M7437 1504 c-40 -21 -46 -28 -37 -39 11 -13 16 -12 37 5 33 26 93 26
126 0 21 -17 27 -18 36 -6 9 11 6 18 -16 34 -47 34 -91 35 -146 6z"/>
<path d="M8576 1520 c-42 -13 -69 -40 -55 -56 9 -11 16 -10 36 6 33 26 93 26
126 0 21 -17 27 -18 36 -6 27 32 -82 75 -143 56z"/>
<path d="M5176 1499 c-21 -17 -24 -24 -15 -35 9 -11 15 -11 36 6 14 11 35 20
47 20 21 1 21 1 2 15 -26 20 -38 19 -70 -6z"/>
<path d="M5830 1505 l-25 -14 26 -1 c15 0 38 -9 52 -20 21 -17 27 -18 36 -6 9
11 6 18 -18 35 -34 25 -38 25 -71 6z"/>
<path d="M1640 1491 c0 -11 14 -21 43 -28 23 -7 61 -28 84 -47 60 -52 85 -47
42 8 -23 30 -87 65 -136 77 -27 6 -33 4 -33 -10z"/>
<path d="M2685 1501 c-48 -12 -111 -48 -134 -77 -41 -52 -17 -60 37 -13 48 42
91 59 152 59 61 0 104 -17 152 -59 33 -28 58 -40 58 -25 0 15 -22 44 -34 44
-16 0 -71 27 -116 57 -35 23 -62 27 -115 14z"/>
<path d="M3258 1488 l-27 -23 51 4 c68 4 115 -11 165 -54 60 -51 85 -46 42 9
-27 35 -103 72 -159 80 -37 5 -50 2 -72 -16z"/>
<path d="M4365 1501 c-49 -12 -112 -48 -134 -77 -41 -52 -17 -60 37 -13 47 41
91 59 147 59 39 0 46 3 43 18 -4 19 -44 25 -93 13z"/>
<path d="M4922 1501 c-39 -10 -57 -25 -48 -40 5 -7 15 -7 32 -1 37 14 119 12
158 -4 18 -7 48 -28 68 -45 54 -47 78 -39 37 13 -45 58 -169 96 -247 77z"/>
<path d="M6605 1501 c-16 -4 -49 -18 -73 -30 -35 -18 -41 -25 -32 -36 10 -11
19 -10 57 11 83 43 181 30 255 -35 54 -47 78 -39 37 13 -45 57 -170 96 -244
77z"/>
<path d="M8360 1501 c1 -15 18 -29 51 -40 20 -6 54 -27 77 -46 22 -19 45 -35
51 -35 33 0 -17 63 -72 92 -45 23 -107 40 -107 29z"/>
<path d="M8845 1501 c-48 -12 -111 -48 -134 -77 -43 -55 -18 -60 42 -9 23 20
59 41 82 47 38 11 55 24 55 41 0 8 -3 8 -45 -2z"/>
<path d="M540 1486 c0 -8 15 -19 34 -26 18 -6 51 -26 74 -45 59 -51 84 -45 41
9 -22 28 -107 76 -134 76 -8 0 -15 -6 -15 -14z"/>
<path d="M6466 1485 c4 -8 11 -15 16 -15 6 0 5 6 -2 15 -7 8 -14 15 -16 15 -2
0 -1 -7 2 -15z"/>
<path d="M6841 1486 c-8 -10 -8 -16 3 -25 10 -9 16 -8 26 3 12 15 6 36 -9 36
-5 0 -14 -6 -20 -14z"/>
<path d="M5968 1470 c-35 -19 -78 -64 -78 -81 0 -18 23 -8 63 26 23 20 52 38
65 42 24 6 25 26 1 30 -8 1 -30 -6 -51 -17z"/>
<path d="M739 1451 c-18 -15 -21 -22 -13 -31 9 -9 17 -8 33 2 17 11 25 11 42
0 16 -10 24 -11 33 -2 13 14 -26 50 -54 50 -10 0 -28 -9 -41 -19z"/>
<path d="M1859 1451 c-18 -15 -21 -22 -13 -31 9 -9 17 -8 33 2 17 11 25 11 42
0 16 -10 24 -11 33 -2 13 14 -26 50 -54 50 -10 0 -28 -9 -41 -19z"/>
<path d="M2432 1463 c-17 -7 4 -33 27 -33 9 0 22 -5 29 -12 9 -9 15 -9 25 1
10 10 7 16 -12 32 -23 19 -44 22 -69 12z"/>
<path d="M3539 1451 c-18 -15 -21 -22 -13 -31 9 -9 17 -8 33 2 17 11 25 11 42
0 16 -10 24 -11 33 -2 13 14 -26 50 -54 50 -10 0 -28 -9 -41 -19z"/>
<path d="M3684 1436 c-35 -35 -43 -56 -21 -56 18 1 77 57 77 75 0 24 -19 18
-56 -19z"/>
<path d="M4140 1452 c0 -24 39 -47 54 -32 8 9 5 16 -13 31 -29 24 -41 24 -41
1z"/>
<path d="M5219 1451 c-18 -15 -21 -22 -13 -31 9 -9 17 -8 33 2 17 11 25 11 42
0 16 -10 24 -11 33 -2 13 14 -26 50 -54 50 -10 0 -28 -9 -41 -19z"/>
<path d="M5779 1451 c-18 -15 -21 -22 -13 -31 9 -9 17 -8 33 2 17 11 25 11 42
0 16 -10 24 -11 33 -2 13 14 -26 50 -54 50 -10 0 -28 -9 -41 -19z"/>
<path d="M7459 1451 c-18 -15 -21 -22 -13 -31 9 -9 17 -8 33 2 17 11 25 11 42
0 16 -10 24 -11 33 -2 13 14 -26 50 -54 50 -10 0 -28 -9 -41 -19z"/>
<path d="M7605 1437 c-36 -36 -44 -57 -22 -57 15 1 77 56 77 69 0 25 -24 19
-55 -12z"/>
<path d="M8579 1451 c-18 -15 -21 -22 -13 -31 9 -9 17 -8 33 2 17 11 25 11 42
0 16 -10 24 -11 33 -2 13 14 -26 50 -54 50 -10 0 -28 -9 -41 -19z"/>
<path d="M6890 1445 c-20 -24 2 -40 29 -23 17 11 25 11 42 0 14 -9 25 -10 31
-4 6 6 -6 15 -32 26 -50 20 -54 20 -70 1z"/>
<path d="M7342 1453 c-9 -3 0 -16 25 -39 60 -53 86 -43 37 15 -25 30 -36 35
-62 24z"/>
<path d="M2676 1435 c-21 -7 -51 -26 -67 -41 -25 -24 -27 -29 -13 -37 11 -6
22 -3 37 11 35 31 63 42 107 42 44 0 72 -11 107 -42 15 -14 26 -17 38 -11 36
21 -83 94 -150 93 -11 -1 -37 -7 -59 -15z"/>
<path d="M3236 1435 c-21 -7 -51 -26 -67 -41 -25 -24 -27 -29 -13 -37 11 -6
22 -3 37 11 35 31 63 42 107 42 44 0 72 -11 107 -42 15 -14 26 -17 38 -11 36
21 -83 94 -150 93 -11 -1 -37 -7 -59 -15z"/>
<path d="M4356 1436 c-21 -8 -51 -27 -67 -42 -25 -24 -27 -29 -13 -37 11 -6
22 -3 37 11 35 31 63 42 107 42 34 0 41 3 38 18 -4 22 -51 26 -102 8z"/>
<path d="M4932 1442 c-13 -4 -23 -10 -23 -14 1 -5 1 -12 1 -17 0 -5 20 -6 44
-4 58 7 87 -1 125 -33 22 -18 35 -23 46 -16 14 7 11 13 -19 40 -50 44 -115 60
-174 44z"/>
<path d="M6596 1435 c-49 -17 -74 -41 -59 -56 7 -7 20 -4 44 10 58 36 133 27
186 -21 15 -14 26 -17 38 -11 36 21 -83 94 -150 93 -11 -1 -38 -7 -59 -15z"/>
<path d="M540 1425 c0 -8 10 -20 23 -26 12 -6 31 -20 43 -31 13 -11 28 -16 38
-12 15 6 15 9 -6 31 -24 26 -69 53 -88 53 -5 0 -10 -7 -10 -15z"/>
<path d="M1650 1430 c0 -5 12 -17 28 -27 15 -9 36 -25 48 -35 12 -11 28 -16
38 -12 15 6 15 9 -6 31 -39 42 -108 69 -108 43z"/>
<path d="M3135 1428 c-29 -11 -45 -25 -45 -40 0 -16 24 -7 57 22 36 32 35 34
-12 18z"/>
<path d="M5345 1417 c-8 -12 -15 -25 -15 -29 0 -16 27 -7 49 16 22 23 22 23 1
29 -13 3 -25 -2 -35 -16z"/>
<path d="M5687 1433 c-9 -9 33 -53 50 -53 17 0 16 11 -3 38 -15 22 -35 28 -47
15z"/>
<path d="M6005 1421 c-16 -10 -38 -27 -48 -38 -17 -19 -17 -21 -1 -27 10 -4
25 1 38 12 12 11 31 25 44 31 23 12 30 41 10 41 -7 0 -26 -8 -43 -19z"/>
<path d="M8390 1432 c0 -25 73 -84 94 -76 15 6 15 9 -6 31 -21 22 -68 53 -83
53 -3 0 -5 -4 -5 -8z"/>
<path d="M8805 1421 c-16 -10 -38 -27 -48 -38 -16 -19 -16 -21 -1 -27 10 -4
28 4 46 19 16 14 33 25 38 25 4 0 10 9 13 20 6 25 -9 26 -48 1z"/>
<path d="M1979 1409 c-13 -25 -4 -37 18 -23 23 14 27 30 9 37 -10 4 -20 -2
-27 -14z"/>
<path d="M7230 1420 l-35 -7 33 -2 c37 -1 67 -14 99 -43 15 -14 26 -17 38 -11
14 8 12 14 -20 41 -36 32 -52 35 -115 22z"/>
<path d="M857 1406 c-4 -10 -5 -21 -2 -24 9 -9 17 6 13 25 -3 17 -4 17 -11 -1z"/>
<path d="M5406 1391 c-23 -24 -25 -29 -11 -35 11 -4 28 3 47 19 16 14 35 25
41 26 13 0 -22 17 -39 18 -5 1 -23 -12 -38 -28z"/>
<path d="M5590 1410 c0 -5 4 -10 9 -10 5 0 23 -11 39 -25 19 -16 36 -23 47
-19 14 6 12 11 -11 35 -27 28 -84 41 -84 19z"/>
<path d="M7016 1404 c-4 -9 -4 -19 -1 -23 8 -7 38 12 43 27 6 19 -35 14 -42
-4z"/>
<path d="M765 1400 c-3 -5 3 -10 15 -10 12 0 18 5 15 10 -3 6 -10 10 -15 10
-5 0 -12 -4 -15 -10z"/>
<path d="M1885 1400 c-3 -5 3 -10 15 -10 12 0 18 5 15 10 -3 6 -10 10 -15 10
-5 0 -12 -4 -15 -10z"/>
<path d="M2460 1400 c0 -5 5 -10 11 -10 5 0 7 5 4 10 -3 6 -8 10 -11 10 -2 0
-4 -4 -4 -10z"/>
<path d="M3005 1400 c-3 -5 3 -10 15 -10 12 0 18 5 15 10 -3 6 -10 10 -15 10
-5 0 -12 -4 -15 -10z"/>
<path d="M3565 1400 c-3 -5 3 -10 15 -10 12 0 18 5 15 10 -3 6 -10 10 -15 10
-5 0 -12 -4 -15 -10z"/>
<path d="M4140 1400 c0 -5 5 -10 11 -10 5 0 7 5 4 10 -3 6 -8 10 -11 10 -2 0
-4 -4 -4 -10z"/>
<path d="M5245 1400 c-3 -5 3 -10 15 -10 12 0 18 5 15 10 -3 6 -10 10 -15 10
-5 0 -12 -4 -15 -10z"/>
<path d="M5805 1400 c-3 -5 3 -10 15 -10 12 0 18 5 15 10 -3 6 -10 10 -15 10
-5 0 -12 -4 -15 -10z"/>
<path d="M6925 1400 c-3 -5 3 -10 15 -10 12 0 18 5 15 10 -3 6 -10 10 -15 10
-5 0 -12 -4 -15 -10z"/>
<path d="M7081 1386 c-20 -21 -20 -24 -5 -30 10 -4 25 1 38 12 12 11 30 24 41
30 18 10 16 11 -16 12 -25 0 -42 -7 -58 -24z"/>
<path d="M7485 1400 c-3 -5 3 -10 15 -10 12 0 18 5 15 10 -3 6 -10 10 -15 10
-5 0 -12 -4 -15 -10z"/>
<path d="M7641 1386 c-20 -21 -20 -24 -5 -30 21 -8 21 -8 29 27 9 33 5 34 -24
3z"/>
<path d="M8605 1400 c-3 -5 3 -10 15 -10 12 0 18 5 15 10 -3 6 -10 10 -15 10
-5 0 -12 -4 -15 -10z"/>
<path d="M3717 1382 c-17 -18 -17 -20 -1 -26 22 -8 26 -3 22 24 -3 22 -3 22
-21 2z"/>
<path d="M2031 1376 c-9 -11 -8 -15 5 -20 20 -8 39 7 30 23 -10 15 -21 14 -35
-3z"/>
<path d="M2696 1380 c-42 -13 -69 -40 -55 -56 9 -11 16 -10 36 6 33 26 93 26
126 0 21 -17 27 -18 36 -6 27 32 -82 75 -143 56z"/>
<path d="M3256 1380 c-42 -13 -69 -40 -55 -56 9 -11 16 -10 36 6 33 26 93 26
126 0 21 -17 27 -18 36 -6 27 32 -82 75 -143 56z"/>
<path d="M4376 1380 c-42 -13 -69 -40 -55 -56 9 -11 16 -10 36 6 16 12 41 20
64 20 27 0 39 4 39 14 0 25 -33 31 -84 16z"/>
<path d="M4953 1384 c-23 -10 -1 -34 32 -34 18 0 44 -9 58 -20 21 -17 27 -18
36 -6 9 11 6 18 -16 34 -30 21 -89 35 -110 26z"/>
<path d="M5496 1380 c-42 -13 -69 -40 -55 -56 9 -11 16 -10 36 6 33 26 93 26
126 0 21 -17 27 -18 36 -6 27 32 -82 75 -143 56z"/>
<path d="M6610 1377 c-37 -13 -50 -45 -15 -39 83 15 98 14 125 -6 23 -18 30
-19 40 -8 8 11 5 18 -17 34 -38 27 -90 34 -133 19z"/>
<path d="M7176 1380 c-42 -13 -69 -40 -55 -56 9 -11 16 -10 36 6 33 26 93 26
126 0 21 -17 27 -18 36 -6 27 32 -82 75 -143 56z"/>
<path d="M540 1363 c0 -10 11 -26 24 -35 20 -15 26 -15 35 -4 9 11 6 19 -18
35 -35 26 -41 26 -41 4z"/>
<path d="M1675 1359 c12 -39 29 -53 44 -35 10 11 6 18 -20 37 l-31 22 7 -24z"/>
<path d="M6016 1359 c-22 -17 -24 -24 -15 -35 10 -13 15 -11 36 7 23 22 31 49
14 49 -4 0 -20 -9 -35 -21z"/>
<path d="M725 1361 c-67 -17 -155 -78 -155 -108 0 -21 20 -15 58 18 55 49 97
62 174 57 52 -4 68 -2 68 8 0 7 -4 15 -8 18 -16 10 -108 15 -137 7z"/>
<path d="M1845 1361 c-37 -9 -94 -38 -117 -59 -13 -11 -15 -18 -7 -28 8 -10
20 -6 55 19 34 24 57 32 103 35 73 5 116 -8 169 -53 46 -40 52 -42 52 -17 0
60 -165 126 -255 103z"/>
<path d="M2965 1361 c-67 -17 -155 -78 -155 -108 0 -21 20 -15 58 18 48 42 91
59 152 59 61 0 104 -17 152 -59 54 -47 78 -39 37 13 -45 57 -170 96 -244 77z"/>
<path d="M3525 1361 c-57 -15 -117 -51 -111 -67 3 -9 6 -18 6 -20 0 -2 19 8
41 23 62 41 156 44 223 8 50 -27 63 -27 53 -1 -15 39 -146 74 -212 57z"/>
<path d="M4140 1350 c0 -15 6 -20 25 -20 37 0 86 -23 127 -59 54 -47 78 -39
37 13 -25 31 -99 70 -151 80 -34 6 -38 5 -38 -14z"/>
<path d="M5205 1361 c-78 -20 -159 -81 -137 -103 8 -8 20 -3 44 17 46 39 89
55 148 55 61 0 104 -17 152 -59 54 -47 78 -39 37 13 -45 57 -170 96 -244 77z"/>
<path d="M5765 1361 c-67 -17 -155 -78 -155 -108 0 -22 20 -15 62 22 53 45 96
58 169 53 45 -3 69 -11 102 -34 34 -24 45 -28 54 -18 9 9 8 16 -5 27 -53 47
-163 75 -227 58z"/>
<path d="M6885 1361 c-67 -17 -155 -78 -155 -108 0 -21 20 -15 58 18 48 42 91
59 152 59 61 0 104 -17 152 -59 54 -47 78 -39 37 13 -45 57 -170 96 -244 77z"/>
<path d="M7445 1361 c-67 -17 -155 -78 -155 -108 0 -21 20 -15 58 18 20 17 50
38 68 45 44 18 126 18 170 -1 20 -8 40 -12 45 -9 45 28 -112 74 -186 55z"/>
<path d="M8565 1361 c-48 -12 -115 -50 -115 -65 0 -25 13 -25 53 2 35 23 51
27 117 27 67 0 82 -3 120 -28 33 -22 44 -26 51 -16 11 18 4 26 -50 54 -53 27
-130 38 -176 26z"/>
<path d="M2500 1344 c8 -8 28 -21 45 -28 17 -8 47 -28 67 -45 54 -47 78 -39
37 13 -24 30 -108 76 -140 76 -18 0 -20 -2 -9 -16z"/>
<path d="M8426 1345 c4 -8 11 -15 16 -15 6 0 5 6 -2 15 -7 8 -14 15 -16 15 -2
0 -1 -7 2 -15z"/>
<path d="M8801 1346 c-7 -8 -8 -17 -3 -20 6 -3 13 1 16 10 9 23 2 28 -13 10z"/>
<path d="M2075 1341 c-3 -5 -1 -12 5 -16 5 -3 10 1 10 9 0 18 -6 21 -15 7z"/>
<path d="M2699 1311 c-18 -15 -21 -22 -13 -31 9 -9 17 -8 33 2 17 11 25 11 42
0 16 -10 24 -11 33 -2 13 14 -26 50 -54 50 -10 0 -28 -9 -41 -19z"/>
<path d="M3259 1311 c-18 -15 -21 -22 -13 -31 9 -9 17 -8 33 2 17 11 25 11 42
0 16 -10 24 -11 33 -2 13 14 -26 50 -54 50 -10 0 -28 -9 -41 -19z"/>
<path d="M4379 1311 c-18 -15 -21 -22 -13 -31 9 -9 17 -8 33 2 17 10 25 10 41
0 18 -11 20 -10 20 12 0 39 -43 48 -81 17z"/>
<path d="M5005 1305 c16 -13 32 -22 35 -19 7 7 -39 44 -54 44 -6 -1 2 -12 19
-25z"/>
<path d="M5499 1311 c-18 -15 -21 -22 -13 -31 9 -9 17 -8 33 2 17 11 25 11 42
0 16 -10 24 -11 33 -2 13 14 -26 50 -54 50 -10 0 -28 -9 -41 -19z"/>
<path d="M6627 1319 c-24 -14 -5 -39 23 -32 11 3 27 0 35 -7 13 -10 18 -11 28
-1 9 10 7 17 -12 32 -26 21 -47 24 -74 8z"/>
<path d="M7179 1311 c-18 -15 -21 -22 -13 -31 9 -9 17 -8 33 2 17 11 25 11 42
0 16 -10 24 -11 33 -2 13 14 -26 50 -54 50 -10 0 -28 -9 -41 -19z"/>
<path d="M540 1290 c0 -19 3 -21 12 -12 9 9 9 15 0 24 -9 9 -12 7 -12 -12z"/>
<path d="M716 1295 c-21 -7 -51 -26 -67 -41 -25 -24 -27 -29 -14 -37 11 -6 25
-1 46 17 17 14 41 29 55 32 23 6 82 2 113 -7 8 -2 16 4 19 13 2 12 -7 20 -35
27 -49 14 -69 13 -117 -4z"/>
<path d="M1837 1295 c-54 -19 -90 -54 -75 -72 9 -11 14 -11 32 5 34 31 62 42
106 42 44 0 72 -11 107 -42 15 -14 26 -17 38 -11 36 21 -83 94 -150 93 -11 -1
-37 -7 -58 -15z"/>
<path d="M2956 1295 c-21 -7 -51 -26 -67 -41 -25 -24 -27 -29 -13 -37 11 -6
22 -3 37 11 35 31 63 42 107 42 44 0 72 -11 107 -42 15 -14 26 -17 38 -11 36
21 -83 94 -150 93 -11 -1 -37 -7 -59 -15z"/>
<path d="M3517 1295 c-54 -19 -90 -54 -75 -72 9 -11 14 -11 32 5 34 31 62 42
106 42 45 0 72 -11 107 -43 21 -19 23 -19 29 -2 9 23 -32 60 -84 74 -48 14
-68 13 -115 -4z"/>
<path d="M4140 1291 c0 -15 6 -21 21 -21 24 0 56 -16 85 -42 13 -11 28 -16 38
-12 34 13 -42 74 -111 89 -29 6 -33 4 -33 -14z"/>
<path d="M5196 1295 c-22 -8 -51 -25 -65 -40 -22 -21 -24 -27 -11 -35 10 -6
21 -3 35 9 33 30 61 41 105 41 44 0 72 -11 107 -42 15 -14 26 -17 38 -11 36
21 -83 94 -150 93 -11 -1 -38 -7 -59 -15z"/>
<path d="M5756 1295 c-21 -7 -51 -26 -67 -41 -25 -24 -27 -29 -13 -37 11 -6
22 -3 37 11 53 48 128 57 185 22 42 -26 75 -15 43 14 -24 22 -87 45 -121 45
-14 0 -42 -6 -64 -14z"/>
<path d="M6876 1295 c-21 -7 -51 -26 -67 -41 -25 -24 -27 -29 -13 -37 11 -6
22 -3 37 11 35 31 63 42 107 42 44 0 72 -11 107 -42 15 -14 26 -17 38 -11 36
21 -83 94 -150 93 -11 -1 -37 -7 -59 -15z"/>
<path d="M7436 1296 c-21 -8 -51 -27 -67 -42 -25 -24 -27 -29 -14 -37 11 -6
25 -1 46 17 39 33 68 40 134 32 57 -6 80 5 46 24 -35 18 -104 21 -145 6z"/>
<path d="M8556 1295 c-50 -18 -81 -48 -72 -71 6 -16 8 -15 29 3 35 32 62 43
107 43 45 0 72 -11 108 -43 20 -18 24 -19 33 -7 19 31 -79 91 -146 90 -11 -1
-38 -7 -59 -15z"/>
<path d="M2725 1260 c-3 -5 3 -10 15 -10 12 0 18 5 15 10 -3 6 -10 10 -15 10
-5 0 -12 -4 -15 -10z"/>
<path d="M3285 1260 c-3 -5 3 -10 15 -10 12 0 18 5 15 10 -3 6 -10 10 -15 10
-5 0 -12 -4 -15 -10z"/>
<path d="M4405 1260 c-3 -5 3 -10 15 -10 12 0 18 5 15 10 -3 6 -10 10 -15 10
-5 0 -12 -4 -15 -10z"/>
<path d="M5525 1260 c-3 -5 3 -10 15 -10 12 0 18 5 15 10 -3 6 -10 10 -15 10
-5 0 -12 -4 -15 -10z"/>
<path d="M7205 1260 c-3 -5 3 -10 15 -10 12 0 18 5 15 10 -3 6 -10 10 -15 10
-5 0 -12 -4 -15 -10z"/>
<path d="M736 1240 c-42 -13 -68 -40 -55 -56 9 -11 16 -9 39 8 23 16 38 20 74
16 45 -5 67 5 50 22 -15 14 -77 20 -108 10z"/>
<path d="M1854 1239 c-40 -11 -61 -36 -46 -51 7 -7 17 -6 33 6 32 22 91 20
122 -4 21 -17 27 -18 36 -6 9 11 6 18 -16 34 -35 25 -88 34 -129 21z"/>
<path d="M2976 1240 c-42 -13 -69 -40 -55 -56 9 -11 16 -10 36 6 15 12 41 20
63 20 22 0 48 -8 63 -20 21 -17 27 -18 36 -6 27 32 -82 75 -143 56z"/>
<path d="M3536 1240 c-42 -13 -69 -40 -55 -56 9 -11 16 -10 36 6 15 12 41 20
63 20 22 0 48 -8 63 -20 21 -17 27 -18 36 -6 27 32 -82 75 -143 56z"/>
<path d="M4140 1230 c0 -13 7 -20 19 -20 10 0 30 -9 44 -20 21 -17 27 -18 36
-6 9 11 6 18 -16 34 -15 10 -40 22 -55 26 -24 5 -28 3 -28 -14z"/>
<path d="M5214 1239 c-41 -12 -63 -36 -41 -45 9 -3 24 -1 36 5 31 17 86 13
114 -9 21 -17 27 -18 36 -6 9 11 6 18 -16 34 -35 25 -88 34 -129 21z"/>
<path d="M5776 1240 c-42 -13 -68 -40 -55 -56 9 -11 16 -9 39 8 23 17 38 20
77 16 61 -7 81 -1 56 17 -26 18 -83 26 -117 15z"/>
<path d="M6896 1240 c-42 -13 -69 -40 -55 -56 9 -11 16 -10 36 6 15 12 41 20
63 20 22 0 48 -8 63 -20 21 -17 27 -18 36 -6 27 32 -82 75 -143 56z"/>
<path d="M7456 1240 c-42 -13 -69 -40 -55 -56 9 -11 16 -10 36 6 14 11 35 20
47 20 11 1 32 7 45 14 l23 13 -23 6 c-29 8 -36 8 -73 -3z"/>
<path d="M8576 1240 c-42 -13 -69 -40 -55 -56 9 -11 16 -10 36 6 15 12 41 20
63 20 22 0 48 -8 63 -20 21 -17 27 -18 36 -6 27 32 -82 75 -143 56z"/>
<path d="M2685 1221 c-29 -7 -30 -7 -8 -19 12 -7 44 -12 70 -12 30 0 64 -8 88
-21 22 -12 53 -28 68 -36 35 -19 46 -10 21 18 -47 52 -167 88 -239 70z"/>
<path d="M3245 1221 c-44 -11 -107 -46 -130 -71 l-20 -23 25 7 c33 10 190 85
190 91 0 7 -28 5 -65 -4z"/>
<path d="M4365 1221 c-49 -12 -112 -48 -134 -77 -41 -52 -17 -60 37 -13 47 41
91 59 147 59 39 0 46 3 43 18 -4 19 -44 25 -93 13z"/>
<path d="M5485 1221 c-41 -11 -108 -46 -124 -65 -25 -30 15 -29 60 1 62 41
155 45 222 9 26 -14 55 -26 63 -26 28 0 8 25 -42 52 -53 29 -131 42 -179 29z"/>
<path d="M7165 1221 c-41 -10 -95 -39 -123 -64 -21 -19 -21 -22 -5 -28 11 -3
33 6 60 25 58 40 157 48 216 17 27 -13 46 -17 60 -12 20 7 16 11 -29 34 -56
28 -132 40 -179 28z"/>
<path d="M610 1185 c31 -23 60 -33 60 -20 0 5 -76 45 -87 45 -4 0 8 -11 27
-25z"/>
<path d="M2033 1180 c-18 -11 -33 -22 -33 -24 0 -10 40 8 56 25 22 24 17 24
-23 -1z"/>
<path d="M739 1170 l-24 -19 28 -1 c34 0 70 17 62 31 -10 15 -41 10 -66 -11z"/>
<path d="M1865 1176 c-18 -13 -16 -15 25 -23 61 -13 80 -5 50 19 -27 22 -49
23 -75 4z"/>
<path d="M2979 1171 c-18 -15 -21 -22 -13 -31 9 -9 17 -8 33 2 17 11 25 11 42
0 16 -10 24 -11 33 -2 13 14 -26 50 -54 50 -10 0 -28 -9 -41 -19z"/>
<path d="M3548 1179 c-32 -18 -19 -29 32 -29 52 0 64 12 31 30 -24 12 -41 12
-63 -1z"/>
<path d="M4140 1172 c0 -24 39 -47 54 -32 8 9 5 16 -13 31 -29 24 -41 24 -41
1z"/>
<path d="M5231 1181 c-10 -7 0 -13 35 -23 58 -17 68 -13 35 13 -25 21 -48 24
-70 10z"/>
<path d="M5784 1174 c-18 -14 -18 -15 6 -8 14 3 32 10 40 15 12 7 11 8 -6 9
-11 0 -29 -7 -40 -16z"/>
<path d="M6899 1170 l-24 -19 41 -1 c22 0 45 -5 52 -12 9 -9 15 -9 25 1 10 10
7 16 -12 32 -30 24 -53 24 -82 -1z"/>
<path d="M8588 1179 c-33 -19 -18 -29 40 -29 l57 1 -24 19 c-26 22 -47 25 -73
9z"/>
<path d="M4356 1156 c-21 -8 -51 -27 -67 -42 -25 -24 -27 -29 -13 -37 11 -6
22 -3 37 11 35 31 63 42 107 42 34 0 41 3 38 18 -4 22 -51 26 -102 8z"/>
<path d="M5475 1155 c-22 -8 -41 -15 -43 -15 -2 0 -1 -4 2 -9 3 -5 43 -7 88
-5 46 2 94 4 108 4 l25 1 -27 15 c-42 22 -108 26 -153 9z"/>
<path d="M7156 1155 c-77 -27 -67 -36 34 -29 115 8 140 18 84 33 -50 14 -70
13 -118 -4z"/>
<path d="M2795 1150 c27 -12 43 -12 25 0 -8 5 -22 9 -30 9 -10 0 -8 -3 5 -9z"/>
<path d="M4140 1120 c0 -5 5 -10 11 -10 5 0 7 5 4 10 -3 6 -8 10 -11 10 -2 0
-4 -4 -4 -10z"/>
<path d="M4376 1100 c-42 -13 -69 -40 -55 -56 9 -11 16 -10 36 6 14 11 41 20
59 20 36 0 54 17 33 31 -17 10 -34 10 -73 -1z"/>
<path d="M4126 1075 c-9 -25 -9 -25 29 -25 46 0 93 -20 137 -59 54 -47 78 -39
37 13 -43 55 -189 106 -203 71z"/>
<path d="M4379 1031 c-19 -15 -21 -22 -12 -32 10 -10 15 -9 28 1 8 7 24 10 36
7 16 -4 20 -1 17 16 -4 29 -38 33 -69 8z"/>
<path d="M4099 1007 c-16 -22 -16 -22 22 -19 53 5 82 -3 118 -34 22 -18 35
-23 46 -16 36 20 -83 92 -150 92 -11 -1 -27 -11 -36 -23z"/>
<path d="M4405 980 c-3 -5 3 -10 15 -10 12 0 18 5 15 10 -3 6 -10 10 -15 10
-5 0 -12 -4 -15 -10z"/>
<path d="M4096 960 c-42 -13 -69 -40 -55 -56 9 -11 16 -10 36 6 15 12 41 20
63 20 22 0 48 -8 63 -20 21 -17 27 -18 36 -6 27 32 -82 75 -143 56z"/>
<path d="M4365 941 c-48 -12 -111 -48 -134 -77 -41 -52 -17 -60 37 -13 42 37
90 59 131 59 20 0 30 6 34 20 6 22 -11 25 -68 11z"/>
<path d="M3937 914 c-4 -4 13 -19 36 -34 23 -14 48 -34 56 -43 14 -18 41 -23
41 -8 0 16 -42 61 -70 76 -31 16 -53 19 -63 9z"/>
<path d="M4099 891 c-18 -15 -21 -22 -13 -31 9 -9 17 -8 33 2 17 11 25 11 42
0 16 -10 24 -11 33 -2 13 14 -26 50 -54 50 -10 0 -28 -9 -41 -19z"/>
<path d="M4356 875 c-21 -7 -51 -26 -67 -41 -25 -24 -27 -29 -13 -37 11 -6 22
-3 37 12 12 11 39 27 58 35 20 8 39 22 42 31 8 18 -6 19 -57 0z"/>
<path d="M3887 866 c-4 -9 3 -16 18 -20 13 -3 37 -17 53 -31 19 -15 36 -23 47
-19 14 6 13 9 -7 31 -43 46 -101 66 -111 39z"/>
<path d="M4125 840 c-3 -5 3 -10 15 -10 12 0 18 5 15 10 -3 6 -10 10 -15 10
-5 0 -12 -4 -15 -10z"/>
<path d="M3870 809 c0 -10 6 -19 14 -19 7 0 25 -9 39 -20 21 -17 27 -18 36 -6
9 11 6 18 -16 34 -43 29 -73 34 -73 11z"/>
<path d="M4336 799 c-19 -15 -24 -25 -17 -32 12 -12 36 5 52 35 13 24 -2 23
-35 -3z"/>
<path d="M4085 801 c-67 -17 -155 -78 -155 -108 0 -21 20 -15 58 18 75 66 172
79 256 34 45 -24 66 -25 66 -5 0 17 -96 59 -146 64 -27 3 -62 1 -79 -3z"/>
<path d="M3870 752 c0 -26 27 -49 42 -34 12 12 4 28 -23 42 -16 9 -19 7 -19
-8z"/>
<path d="M4076 735 c-21 -7 -51 -26 -67 -41 -25 -24 -27 -29 -13 -37 11 -6 22
-3 37 11 50 45 121 56 178 27 20 -11 35 -13 46 -7 14 8 13 12 -9 26 -29 19
-84 36 -113 36 -11 -1 -37 -7 -59 -15z"/>
<path d="M4094 680 c-17 -6 -39 -19 -49 -30 -16 -17 -16 -20 -2 -26 9 -3 26 1
39 10 13 9 43 16 70 16 43 0 69 12 51 23 -19 12 -80 15 -109 7z"/>
<path d="M3910 654 c0 -8 91 -46 97 -41 3 3 -13 15 -36 26 -40 21 -61 26 -61
15z"/>
</g>
</svg>
